<svg version="1.1" id="Layer_1" xmlns="http://www.w3.org/2000/svg" xmlns:xlink="http://www.w3.org/1999/xlink" x="0px" y="0px"
	 width="100%" viewBox="0 0 616 619" enable-background="new 0 0 616 619" xml:space="preserve">
<path fill="#000000" opacity="1.000000" stroke="none" 
	d="
M351.000000,620.000000 
	C234.000015,620.000000 117.500038,620.000000 1.000047,620.000000 
	C1.000031,413.666718 1.000031,207.333450 1.000016,1.000130 
	C206.333237,1.000087 411.666473,1.000087 616.999756,1.000043 
	C616.999878,207.333206 616.999878,413.666412 616.999939,619.999817 
	C528.500000,620.000000 440.000000,620.000000 351.000000,620.000000 
M134.473724,492.082001 
	C134.290390,492.383484 134.107056,492.684967 133.990601,492.989166 
	C133.990601,492.989166 133.963791,492.927826 133.330521,493.159393 
	C119.529205,506.761353 105.727890,520.363281 91.989204,533.990417 
	C91.989204,533.990417 91.993599,533.923035 91.469208,534.085876 
	C91.286034,534.390564 91.102859,534.695190 91.001106,535.002441 
	C91.001106,535.002441 91.004173,534.921082 90.479385,535.089600 
	C90.292458,535.394226 90.105537,535.698792 89.993187,535.987793 
	C89.993187,535.987793 89.975655,535.913635 89.275230,535.984253 
	C87.156578,537.982056 85.037926,539.979797 82.988602,541.984863 
	C82.988602,541.984863 82.981445,541.915527 82.297333,542.013184 
	C80.843246,543.332397 79.389160,544.651611 77.994698,545.994507 
	C77.994698,545.994507 77.990509,545.930481 77.475990,546.101013 
	C77.293297,546.401306 77.110596,546.701660 76.997528,546.998840 
	C76.997528,546.998840 76.991165,546.929382 76.272858,547.055664 
	C67.818810,553.534668 59.315990,559.951660 50.947598,566.539490 
	C49.032963,568.046692 47.581783,570.142578 45.984280,571.990845 
	C45.984280,571.990845 46.001503,571.922119 45.473682,572.083679 
	C45.287300,572.388916 45.100918,572.694214 44.992138,572.981567 
	C44.992138,572.981567 44.971687,572.904602 44.291153,572.973206 
	C43.159786,573.965759 42.028423,574.958374 40.965027,575.981567 
	C40.965027,575.981567 40.990982,575.911682 40.444530,576.048096 
	C40.245602,576.356140 40.046673,576.664246 39.981243,576.976624 
	C39.981243,576.976624 39.980682,576.843018 39.281628,577.043701 
	C37.578762,578.612915 35.875896,580.182068 34.001564,582.580322 
	C33.736176,586.179016 34.209839,589.303467 39.124146,590.694214 
	C53.408154,590.663452 67.692162,590.632690 82.696556,590.442505 
	C84.137962,590.202820 85.579369,589.963135 87.885490,589.735168 
	C89.886757,589.633545 91.888023,589.531921 94.819084,589.637939 
	C111.935966,589.120850 129.056229,588.688538 146.166473,588.005371 
	C149.110733,587.887817 152.012405,586.703613 155.809097,586.020996 
	C162.434799,585.352600 169.197723,585.309082 175.658539,583.890015 
	C190.650909,580.597107 205.508194,576.682556 220.392700,572.911316 
	C222.961304,572.260498 225.394501,571.075317 228.678955,570.029358 
	C230.486542,569.344482 232.416946,568.877258 234.081100,567.938232 
	C242.777740,563.030884 251.406769,558.003662 259.999817,553.003113 
	C259.999817,553.003113 260.009125,553.063843 260.726715,552.927490 
	C262.861633,551.282654 264.996552,549.637817 267.790283,547.764404 
	C277.477417,542.786438 287.164551,537.808472 297.798431,532.990356 
	C302.116974,532.936218 306.435486,532.882080 311.537445,533.002319 
	C317.999054,535.699585 324.460663,538.396851 331.071167,541.603333 
	C331.373535,541.763611 331.675903,541.923889 331.977234,542.011414 
	C331.977234,542.011414 331.923553,542.060669 332.107147,542.690735 
	C332.733429,542.823425 333.359680,542.956116 333.978729,543.018250 
	C333.978729,543.018250 333.917938,543.054810 334.110443,543.671631 
	C335.064178,544.141479 336.017914,544.611389 336.983734,545.009277 
	C336.983734,545.009277 336.924835,545.052307 337.145233,545.713562 
	C338.755890,546.502502 340.366516,547.291443 341.988922,548.011780 
	C341.988922,548.011780 341.927490,548.044434 342.120789,548.645508 
	C343.406555,549.313843 344.692352,549.982178 346.440277,550.960876 
	C346.621765,550.999512 346.803284,551.038086 346.985748,551.008484 
	C346.985748,551.008484 346.929901,551.047668 347.172913,551.675903 
	C348.567291,552.381226 349.961700,553.086548 351.492523,553.940430 
	C351.492523,553.940430 351.691315,553.906128 352.057220,554.538269 
	C354.139130,555.621399 356.221039,556.704590 358.486725,557.940186 
	C358.486725,557.940186 358.724152,557.915100 359.113983,558.546631 
	C361.832184,559.955566 364.550385,561.364563 367.490540,562.930847 
	C367.490540,562.930847 367.762421,562.920593 368.130768,563.569275 
	C378.645752,568.321167 389.160736,573.073120 400.505341,577.977783 
	C404.362518,578.934814 408.219696,579.891846 412.770752,581.195007 
	C419.733337,583.049927 426.285126,586.770264 434.729340,586.003052 
	C441.486359,586.739197 448.243378,587.475342 455.383728,588.864990 
	C460.569458,589.559998 465.751465,590.823242 470.941528,590.857300 
	C503.241974,591.069519 535.544250,590.995422 567.845947,591.050903 
	C571.274170,591.056824 575.371094,590.918335 575.743774,587.028748 
	C576.095886,583.352783 574.715515,579.203735 570.011597,577.976196 
	C570.011597,577.976196 570.082336,577.958313 569.810669,577.341858 
	C568.221497,576.199890 566.632324,575.057922 565.002991,573.979980 
	C565.002991,573.979980 565.074036,573.954346 564.800720,573.344604 
	C563.545715,572.533081 562.290771,571.721619 561.010254,570.975952 
	C561.010254,570.975952 561.079285,570.990967 560.899109,570.477844 
	C560.598022,570.293579 560.296936,570.109375 560.003357,569.993774 
	C560.003357,569.993774 560.070923,569.979431 559.800537,569.348816 
	C558.502625,568.431213 557.204773,567.513611 555.875244,566.316162 
	C555.768127,566.125977 555.607666,566.052734 554.942627,565.512207 
	C554.341431,565.258118 553.740234,565.004028 553.315857,564.702087 
	C553.315857,564.702087 553.284912,564.521545 553.208191,563.896301 
	C552.143677,563.244263 551.079163,562.592163 550.001343,561.997864 
	C550.001343,561.997864 550.057007,561.977539 549.787720,561.365784 
	C548.194519,560.224182 546.601257,559.082520 544.999573,557.999756 
	C544.999573,557.999756 545.057251,557.985474 544.786072,557.366211 
	C543.155518,556.144165 541.524902,554.922119 539.867981,553.385315 
	C539.753540,553.169800 539.575928,553.081848 538.918274,552.522705 
	C531.009338,545.586731 523.152588,538.589844 515.163086,531.747986 
	C512.367798,529.354248 509.245728,527.342285 505.602509,524.949951 
	C504.713440,524.203003 503.824371,523.455994 502.854401,522.349609 
	C502.707245,522.125549 502.499573,522.013428 502.194397,521.801147 
	C502.194397,521.801147 501.982605,521.762817 501.685303,521.168945 
	C500.992859,519.920593 500.549103,518.414673 499.566986,517.466248 
	C493.801331,511.898163 487.910065,506.460114 481.813812,500.338867 
	C478.221100,496.841339 474.628387,493.343781 470.795380,489.234009 
	C469.479858,487.757812 468.164368,486.281616 466.777740,484.273834 
	C466.228210,483.826508 465.678680,483.379181 465.030273,482.534637 
	C465.030273,482.534637 464.824615,482.180786 464.876221,481.463684 
	C462.933441,479.284027 460.990662,477.104401 459.024445,474.997894 
	C459.024445,474.997894 459.087738,474.954376 459.053772,474.245148 
	C457.695953,472.441193 456.360962,470.619446 454.976105,468.836487 
	C450.334717,462.860718 445.675476,456.898804 441.006683,450.994598 
	C441.006683,450.994598 441.071289,450.986633 440.988708,450.280212 
	C439.671570,448.495300 438.354462,446.710358 437.014435,444.990143 
	C437.014435,444.990143 437.081879,444.977448 436.986206,444.318573 
	C436.334381,443.522400 435.682556,442.726227 435.011169,441.993561 
	C435.011169,441.993561 435.076904,441.983856 434.964142,441.304688 
	C434.281372,440.452240 433.598602,439.599792 432.924133,438.505493 
	C432.924133,438.505493 432.768494,438.320129 432.863770,437.609680 
	C431.921997,436.382782 430.980194,435.155914 430.012299,433.991974 
	C430.012299,433.991974 430.078735,433.976807 429.956451,433.289337 
	C428.982971,431.834503 428.009491,430.379669 427.013214,428.989594 
	C427.013214,428.989594 427.080261,428.974823 426.937714,428.278564 
	C425.930267,426.735382 424.922791,425.192230 423.965149,423.471741 
	C423.965149,423.471741 423.825256,423.351929 423.876465,422.732941 
	C423.589600,422.465363 423.302765,422.197784 423.006622,421.994629 
	C423.006622,421.994629 423.070099,421.980255 423.000610,421.294891 
	C422.059174,420.189667 421.117737,419.084442 420.027985,417.249969 
	C415.638397,408.525391 411.248810,399.800781 406.978638,390.308685 
	C401.266449,375.793640 395.563324,361.275024 389.794037,346.782715 
	C389.637054,346.388397 388.766571,346.278168 388.032501,345.251648 
	C387.932129,344.610443 387.914337,343.942810 387.719086,343.331940 
	C384.442871,333.080933 381.175690,322.826904 377.842590,312.594360 
	C374.306671,301.739166 370.703491,290.905914 367.780548,279.681763 
	C363.187683,260.175018 358.665924,240.651001 353.937042,221.177277 
	C353.076447,217.633240 351.369507,214.294724 350.035217,210.975464 
	C350.035217,210.975464 350.150208,210.986557 350.012482,210.568604 
	C350.012482,210.568604 349.841095,210.163300 349.979218,209.339233 
	C348.652283,203.973602 347.325348,198.607971 346.647644,192.737930 
	C346.405701,190.516434 346.385712,188.242996 345.880463,186.083099 
	C344.329346,179.452240 342.592224,172.864899 340.284607,165.729797 
	C339.127289,159.372925 337.969940,153.016052 336.924957,145.898743 
	C336.817932,144.952530 336.775085,143.993881 336.594360,143.061981 
	C333.679108,128.031631 330.746338,113.004692 327.618408,97.214241 
	C326.880524,93.422249 326.103638,89.637352 325.411774,85.836975 
	C322.924835,72.176521 320.558746,58.493324 317.965942,44.853138 
	C316.170807,35.409485 313.936432,26.048813 312.174744,16.599520 
	C311.221802,11.488148 308.161774,9.915546 303.461182,10.149269 
	C298.210632,10.410340 296.828400,14.264512 296.039337,18.368429 
	C294.848389,24.562716 294.048126,30.830997 292.944427,37.043423 
	C290.935120,48.353497 288.825012,59.645660 286.698578,71.735672 
	C285.933044,75.172447 285.074951,78.591682 284.419586,82.049339 
	C282.560822,91.856110 280.846680,101.690483 278.959015,111.491539 
	C277.073425,121.281830 275.046844,131.044968 272.405853,141.306671 
	C271.772247,144.612198 271.148804,147.919724 270.503021,151.222870 
	C269.081635,158.493179 267.649017,165.761292 266.051575,173.824707 
	C263.665558,185.200150 261.279541,196.575607 258.198334,208.344437 
	C257.752899,211.058365 257.502899,213.821716 256.831360,216.478485 
	C250.983490,239.614014 245.060074,262.730438 238.988785,286.648773 
	C235.632858,298.098541 232.276947,309.548279 228.284729,321.356689 
	C227.375198,323.928802 226.440933,326.492523 225.560562,329.074585 
	C222.385773,338.386017 219.229126,347.703644 215.465027,357.438507 
	C212.978760,364.237946 210.492508,371.037415 207.346832,378.155731 
	C205.885071,381.742065 204.423294,385.328369 202.323517,389.234833 
	C195.205170,402.485809 188.086838,415.736755 180.550827,429.063293 
	C180.457596,429.540985 180.364365,430.018646 180.316803,430.735962 
	C180.316803,430.735962 180.560532,430.725830 179.858887,430.841858 
	C179.419373,431.650330 178.979874,432.458771 178.431686,433.156128 
	C178.431686,433.156128 178.379074,433.380035 177.810379,433.917725 
	C174.500687,439.607056 171.190994,445.296417 167.975998,450.981781 
	C167.975998,450.981781 167.967133,450.887390 167.402222,451.086273 
	C166.982819,451.710571 166.563416,452.334900 165.892822,453.575256 
	C165.176468,454.408051 164.460114,455.240814 163.243271,456.330322 
	C163.119797,456.883942 162.996338,457.437531 162.989929,457.985596 
	C162.989929,457.985596 162.981537,457.868683 162.462082,458.066895 
	C162.281509,458.376953 162.100937,458.687042 161.988312,458.983154 
	C161.988312,458.983154 161.960190,458.919800 161.317062,459.147034 
	C160.517029,460.427429 159.716995,461.707794 158.986084,462.989746 
	C158.986084,462.989746 158.972595,462.921906 158.353867,463.151367 
	C157.543503,464.431976 156.733139,465.712616 155.992447,466.992279 
	C155.992447,466.992279 155.983978,466.923126 155.248932,466.999756 
	C151.167694,471.625793 146.956512,476.145447 143.050888,480.915253 
	C140.452072,484.089172 138.289490,487.620270 136.001755,490.998535 
	C136.001755,490.998535 136.007828,490.928284 135.499527,491.113831 
	C135.309174,491.410339 135.118805,491.706818 134.999756,492.000580 
	C134.999756,492.000580 134.997299,491.929260 134.473724,492.082001 
z"/>
<path fill="#56D4E0" opacity="1.000000" stroke="none" 
	d="
M38.676712,589.865234 
	C34.209839,589.303467 33.736176,586.179016 34.412804,582.146973 
	C36.542927,580.090088 38.261814,578.466553 39.980690,576.843018 
	C39.980682,576.843018 39.981243,576.976624 40.186607,576.897339 
	C40.591644,576.515869 40.791313,576.213806 40.990982,575.911682 
	C40.990982,575.911682 40.965027,575.981567 41.298191,576.011230 
	C42.744801,574.995422 43.858246,573.950012 44.971687,572.904602 
	C44.971687,572.904602 44.992138,572.981567 45.209011,572.896301 
	C45.617752,572.514709 45.809624,572.218445 46.001495,571.922119 
	C46.001503,571.922119 45.984280,571.990845 46.313831,572.038452 
	C47.529846,571.683960 48.546757,571.444702 49.282650,570.854858 
	C56.854408,564.785400 64.430649,558.719238 71.885338,552.507812 
	C73.804337,550.908813 75.300667,548.802612 76.991165,546.929382 
	C76.991165,546.929382 76.997528,546.998840 77.246353,546.948853 
	C77.660286,546.576050 77.825394,546.253235 77.990509,545.930481 
	C77.990509,545.930481 77.994698,545.994507 78.327927,546.061646 
	C80.101250,544.724365 81.541344,543.319946 82.981445,541.915527 
	C82.981445,541.915527 82.988602,541.984863 83.318405,542.007080 
	C85.757355,539.990784 87.866508,537.952209 89.975655,535.913635 
	C89.975655,535.913635 89.993187,535.987793 90.212700,535.900940 
	C90.622864,535.516418 90.813507,535.218750 91.004166,534.921082 
	C91.004173,534.921082 91.001106,535.002441 91.232971,534.932373 
	C91.641090,534.549194 91.817345,534.236145 91.993599,533.923035 
	C91.993599,533.923035 91.989204,533.990417 92.319092,534.053589 
	C93.657776,533.597717 94.864403,533.283447 95.645805,532.528870 
	C107.923073,520.672974 120.171669,508.786804 132.328720,496.807953 
	C133.251862,495.898346 133.436081,494.238770 133.963791,492.927826 
	C133.963791,492.927826 133.990601,492.989166 134.244934,492.950256 
	C134.665268,492.583954 134.831284,492.256622 134.997299,491.929260 
	C134.997299,491.929260 134.999756,492.000580 135.231552,491.927979 
	C135.644836,491.546326 135.826324,491.237305 136.007812,490.928284 
	C136.007828,490.928284 136.001755,490.998535 136.320847,491.008850 
	C141.382782,485.747437 146.259506,480.587708 150.808105,475.153351 
	C152.869125,472.690948 154.278824,469.683380 155.983978,466.923126 
	C155.983978,466.923126 155.992447,466.992279 156.317688,466.958313 
	C157.419495,465.590210 158.196045,464.256073 158.972595,462.921906 
	C158.972595,462.921906 158.986084,462.989746 159.310410,462.954437 
	C160.409897,461.586029 161.185043,460.252899 161.960190,458.919800 
	C161.960190,458.919800 161.988312,458.983154 162.217972,458.903687 
	C162.625595,458.505737 162.803574,458.187195 162.981537,457.868683 
	C162.981537,457.868683 162.989929,457.985596 163.194183,457.910919 
	C163.513535,457.248688 163.628647,456.661163 163.743759,456.073608 
	C164.460114,455.240814 165.176468,454.408051 166.336929,453.224457 
	C167.176392,452.211578 167.571762,451.549469 167.967133,450.887390 
	C167.967133,450.887390 167.975998,450.981781 168.264786,450.911011 
	C172.555893,444.135468 176.558212,437.430634 180.560532,430.725830 
	C180.560532,430.725830 180.316803,430.735962 180.621582,430.751282 
	C181.531158,430.161377 182.135941,429.556091 183.022217,428.747314 
	C188.808914,418.402985 194.416611,408.315613 199.753036,398.086731 
	C201.235626,395.244873 201.914124,391.983551 202.961517,388.914703 
	C204.423294,385.328369 205.885071,381.742065 208.004303,377.936707 
	C211.396774,370.803864 214.131775,363.890106 217.167023,356.782043 
	C220.007645,349.759644 222.744980,342.996368 225.021881,336.081512 
	C226.642624,331.159393 227.643524,326.033173 228.921036,320.998047 
	C232.276947,309.548279 235.632858,298.098541 239.411591,286.192810 
	C240.497253,284.645538 241.452240,283.634644 241.777985,282.450623 
	C245.214142,269.960846 248.767105,257.496704 251.851471,244.918472 
	C254.850433,232.688507 257.340668,220.333786 260.037140,208.022110 
	C260.019958,208.010391 260.020050,208.042572 260.278107,207.777466 
	C260.713715,206.275757 260.891266,205.039139 261.120361,203.571960 
	C261.209503,203.023697 261.183289,202.711349 261.343292,202.123657 
	C261.740753,200.874725 261.888184,199.906494 262.065369,198.762817 
	C262.095123,198.587372 262.068878,198.232437 262.314667,197.981583 
	C262.749115,196.827179 262.937775,195.923645 263.346741,194.711853 
	C265.012054,187.241653 266.457031,180.079681 267.973907,172.522858 
	C269.489532,165.188004 271.083405,158.274475 272.312897,151.296738 
	C272.917419,147.865845 272.847046,144.316010 273.082092,140.820007 
	C275.046844,131.044968 277.073425,121.281830 278.959015,111.491539 
	C280.846680,101.690483 282.560822,91.856110 284.419586,82.049339 
	C285.074951,78.591682 285.933044,75.172447 287.104858,71.255264 
	C287.969666,69.969688 288.686340,69.213142 288.848511,68.352173 
	C291.918488,52.050854 295.005310,35.751686 297.879913,19.415350 
	C298.550873,15.602498 299.712646,12.390921 303.988525,12.239511 
	C308.107117,12.093671 310.188446,14.882304 310.982605,18.722853 
	C311.217896,19.860725 311.601440,20.969547 311.809021,22.111324 
	C315.906036,44.646194 319.957642,67.189384 324.108429,89.714310 
	C324.631287,92.551727 325.658997,95.296112 326.492493,98.536392 
	C329.227509,113.907761 331.889771,128.832550 334.687683,143.731857 
	C334.888824,144.802872 336.081146,145.687744 336.812592,146.659180 
	C337.969940,153.016052 339.127289,159.372925 340.421265,166.309006 
	C342.371399,175.672928 344.184906,184.457642 345.998413,193.242340 
	C347.325348,198.607971 348.652283,203.973602 349.798645,209.856308 
	C349.594818,210.687225 349.772217,210.891617 350.150208,210.986557 
	C350.150208,210.986557 350.035217,210.975464 350.005127,211.277573 
	C353.258698,226.048126 356.366577,240.559601 359.892944,254.968643 
	C361.960754,263.417755 364.695129,271.703735 367.129669,280.063080 
	C370.703491,290.905914 374.306671,301.739166 377.842590,312.594360 
	C381.175690,322.826904 384.442871,333.080933 387.719086,343.331940 
	C387.914337,343.942810 387.932129,344.610443 388.096527,346.017456 
	C393.767761,361.057159 399.360504,375.336823 405.029877,389.585968 
	C405.283844,390.224274 406.233551,390.585785 406.859222,391.076202 
	C411.248810,399.800781 415.638397,408.525391 420.112305,417.956665 
	C421.154449,419.768982 422.112274,420.874634 423.070099,421.980255 
	C423.070099,421.980255 423.006622,421.994629 423.052185,422.241943 
	C423.340240,422.776794 423.582764,423.064362 423.825256,423.351929 
	C423.825256,423.351929 423.965149,423.471741 423.902710,423.959839 
	C424.920288,425.956879 426.000275,427.465851 427.080261,428.974823 
	C427.080261,428.974823 427.013214,428.989594 426.985474,429.325348 
	C427.998047,431.099670 429.038391,432.538239 430.078735,433.976807 
	C430.078735,433.976807 430.012299,433.991974 429.954529,434.316772 
	C430.854034,435.867767 431.811249,437.093933 432.768494,438.320129 
	C432.768494,438.320129 432.924133,438.505493 432.897278,439.007751 
	C433.605927,440.334625 434.341431,441.159241 435.076904,441.983856 
	C435.076904,441.983856 435.011169,441.993561 434.963013,442.322296 
	C435.637207,443.426514 436.359528,444.201965 437.081879,444.977448 
	C437.081879,444.977448 437.014435,444.990143 436.964539,445.329651 
	C438.300201,447.441681 439.685730,449.214142 441.071289,450.986633 
	C441.071289,450.986633 441.006683,450.994598 440.970642,451.334351 
	C446.367828,459.288696 451.786102,466.914154 457.277588,474.486542 
	C457.559662,474.875488 458.469940,474.808899 459.087738,474.954376 
	C459.087738,474.954376 459.024445,474.997894 458.993225,475.326202 
	C460.916168,477.829956 462.870392,480.005371 464.824615,482.180786 
	C464.824615,482.180786 465.030273,482.534637 465.106201,483.021973 
	C465.737732,483.941315 466.293304,484.373352 466.848877,484.805389 
	C468.164368,486.281616 469.479858,487.757812 470.972412,489.882782 
	C474.388092,494.085114 477.626770,497.638672 480.961426,501.512878 
	C485.976501,506.938995 490.820343,512.120361 495.854828,517.109436 
	C497.660889,518.899231 499.926636,520.225220 501.982605,521.762817 
	C501.982605,521.762817 502.194397,521.801147 502.193054,522.089844 
	C502.439575,522.488770 502.687469,522.598938 502.935333,522.709045 
	C503.824371,523.455994 504.713440,524.203003 505.941803,525.378662 
	C506.599976,526.370544 506.795532,527.075378 507.255890,527.475891 
	C516.705627,535.697388 526.158020,543.916504 535.704834,552.024414 
	C536.588318,552.774719 538.109863,552.773682 539.335144,553.121582 
	C539.575928,553.081848 539.753540,553.169800 539.901428,553.929077 
	C541.642334,555.643738 543.349792,556.814636 545.057251,557.985474 
	C545.057251,557.985474 544.999573,557.999756 544.990845,558.334839 
	C546.673706,559.772461 548.365356,560.875000 550.057007,561.977539 
	C550.057007,561.977539 550.001343,561.997864 549.981628,562.339478 
	C551.069580,563.294556 552.177246,563.908020 553.284912,564.521545 
	C553.284912,564.521545 553.315857,564.702087 553.322815,565.086792 
	C554.017761,565.679810 554.705811,565.888062 555.393799,566.096313 
	C555.607666,566.052734 555.768127,566.125977 555.875610,566.850342 
	C557.274353,568.249512 558.672607,569.114502 560.070923,569.979431 
	C560.070923,569.979431 560.003357,569.993774 560.081543,570.220093 
	C560.466248,570.627930 560.772766,570.809448 561.079285,570.990967 
	C561.079285,570.990967 561.010254,570.975952 560.998352,571.309204 
	C562.348999,572.413147 563.711487,573.183777 565.074036,573.954346 
	C565.074036,573.954346 565.002991,573.979980 564.966064,574.310425 
	C566.646851,575.746704 568.364624,576.852539 570.082336,577.958313 
	C570.082336,577.958313 570.011597,577.976196 569.987427,578.300842 
	C570.418457,579.305054 571.033875,579.928040 571.298157,580.675171 
	C572.015137,582.701965 573.405029,585.010620 572.917725,586.758545 
	C572.599487,587.899658 569.499451,588.773560 567.596741,588.877930 
	C558.475281,589.378113 549.338928,589.752991 540.204651,589.840637 
	C523.900818,589.997131 507.594635,589.915222 491.096619,589.794983 
	C490.466034,589.744568 490.028320,589.832153 489.403381,589.852905 
	C488.942444,589.739929 488.685883,589.787048 488.082520,589.698608 
	C485.480377,589.339783 483.242218,589.209717 480.546814,589.023438 
	C475.855286,588.662354 471.625122,588.221191 467.385406,588.091553 
	C463.262177,587.965393 459.129120,588.158508 455.000397,588.211426 
	C448.243378,587.475342 441.486359,586.739197 434.218933,585.571167 
	C429.152679,584.015991 424.620544,582.780090 420.031738,581.813049 
	C417.428040,581.264282 414.731537,581.155762 412.076843,580.848938 
	C408.219696,579.891846 404.362518,578.934814 400.122101,577.552612 
	C398.855530,576.315918 398.106689,575.198975 397.067535,574.741455 
	C388.756653,571.082275 380.403015,567.518982 372.029541,564.004700 
	C370.691223,563.442993 369.188934,563.272156 367.762421,562.920593 
	C367.762421,562.920593 367.490540,562.930847 367.254852,562.520630 
	C364.254150,560.711975 361.489136,559.313538 358.724152,557.915100 
	C358.724152,557.915100 358.486725,557.940186 358.264618,557.524536 
	C355.925446,556.041260 353.808380,554.973694 351.691315,553.906128 
	C351.691315,553.906128 351.492523,553.940430 351.293945,553.520264 
	C349.706909,552.415955 348.318420,551.731812 346.929901,551.047668 
	C346.929901,551.047668 346.985748,551.008484 346.920715,550.783264 
	C346.582367,550.334534 346.309082,550.110962 345.873352,549.577576 
	C344.449768,548.859924 343.188629,548.452148 341.927490,548.044434 
	C341.927490,548.044434 341.988922,548.011780 341.954529,547.685791 
	C340.255005,546.590576 338.589935,545.821472 336.924835,545.052307 
	C336.924835,545.052307 336.983734,545.009277 336.948608,544.688477 
	C335.914978,543.930054 334.916443,543.492432 333.917938,543.054810 
	C333.917938,543.054810 333.978729,543.018250 333.877625,542.731689 
	C333.158875,542.316956 332.541229,542.188782 331.923553,542.060669 
	C331.923553,542.060669 331.977234,542.011414 331.912231,541.789673 
	C331.538910,541.409912 331.230591,541.252014 330.922241,541.094116 
	C324.460663,538.396851 317.999054,535.699585 311.072662,532.574829 
	C305.924957,530.411072 301.264282,529.123169 296.851685,532.830444 
	C287.164551,537.808472 277.477417,542.786438 267.117126,547.987793 
	C264.299042,549.828735 262.154083,551.446289 260.009125,553.063843 
	C260.009125,553.063843 259.999817,553.003113 259.651794,552.945923 
	C258.512177,553.108521 257.652832,553.197754 256.939209,553.567810 
	C247.807480,558.302734 238.682739,563.051880 229.605988,567.890808 
	C228.849823,568.293884 228.453644,569.372253 227.890228,570.136963 
	C225.394501,571.075317 222.961304,572.260498 220.392700,572.911316 
	C205.508194,576.682556 190.650909,580.597107 175.658539,583.890015 
	C169.197723,585.309082 162.434799,585.352600 154.972748,585.986450 
	C152.364548,585.680359 150.576782,585.098694 148.823486,585.188599 
	C139.027649,585.691284 129.246475,586.500000 119.448257,586.929993 
	C106.980949,587.477112 94.502151,587.762512 81.559799,588.104126 
	C68.014091,588.310425 54.936340,588.550842 41.860756,588.877808 
	C40.791847,588.904541 39.737709,589.522156 38.676712,589.865234 
M370.967133,457.512207 
	C370.691956,457.256927 370.416748,457.001617 369.936646,456.410400 
	C369.936646,456.410400 369.879181,456.021088 369.807495,455.404755 
	C369.251556,454.717590 368.695587,454.030457 367.494843,452.973846 
	C365.587952,449.979828 363.681061,446.985779 362.277863,443.605743 
	C362.275848,442.987396 362.480621,442.271423 362.241516,441.765045 
	C356.920044,430.496429 351.549683,419.250946 346.097321,407.216583 
	C340.703979,389.205750 335.323822,371.190948 329.872650,353.197632 
	C329.636780,352.419098 328.747467,351.838531 327.986511,350.367310 
	C325.922485,340.913635 323.858459,331.459991 322.350433,321.552490 
	C322.347107,320.595428 322.479919,319.614929 322.319550,318.684937 
	C320.570892,308.542542 318.851929,298.393951 316.971008,288.275665 
	C315.401794,279.834045 313.628113,271.430481 311.832611,262.373138 
	C311.531342,260.970734 311.230072,259.568298 311.546204,257.651855 
	C310.584717,249.326248 309.699982,240.990860 308.638275,232.678055 
	C307.739014,225.636963 306.635071,218.622009 305.621735,211.595474 
	C305.186859,211.602844 304.752014,211.610214 304.317169,211.617569 
	C303.518494,217.405228 302.637177,223.182922 301.938782,228.982635 
	C300.577667,240.286163 299.318970,251.602051 298.018860,263.801819 
	C298.011963,265.134827 298.186493,266.497986 297.970520,267.796204 
	C295.361206,283.480652 292.842651,299.182678 289.977417,314.820923 
	C288.618439,322.238068 286.568756,329.528656 284.135529,337.140808 
	C281.434692,348.431183 278.733856,359.721588 275.485474,371.523254 
	C273.068787,379.339203 270.652130,387.155182 268.110229,395.738953 
	C266.690948,400.770752 265.271667,405.802551 263.267914,411.265961 
	C258.816528,423.615601 252.706223,435.139771 245.207947,446.347168 
	C243.150955,450.260712 241.093948,454.174225 239.024490,458.017456 
	C239.024490,458.017456 239.095551,458.024536 238.402969,458.086243 
	C235.358566,462.162598 232.206787,466.164978 229.323212,470.352081 
	C228.184753,472.005188 227.643707,474.069702 226.275818,476.026123 
	C225.862778,476.360291 225.449738,476.694489 224.553101,477.341705 
	C224.341415,477.866058 224.129730,478.390411 223.259567,479.053284 
	C220.850571,482.376465 218.441559,485.699646 215.795303,489.090515 
	C215.795303,489.090515 215.760635,489.379730 215.760635,489.379730 
	C215.760635,489.379730 215.979553,488.969116 216.664673,488.887146 
	C219.149826,486.943115 221.634964,484.999054 224.507980,482.836395 
	C224.752609,482.650177 224.924561,482.411560 225.646973,481.953888 
	C226.148590,481.326447 226.650192,480.699005 227.249237,479.617126 
	C227.249237,479.617126 227.421051,479.185272 227.678040,479.306549 
	C227.678040,479.306549 227.961456,479.286102 228.709915,479.268890 
	C232.476608,476.488434 236.243317,473.708008 240.008011,471.003510 
	C240.008011,471.003510 239.932068,471.002838 240.652588,471.066132 
	C241.434326,470.349731 242.216064,469.633331 242.996445,468.989990 
	C242.996445,468.989990 242.923447,468.987061 243.672241,469.081268 
	C245.743561,467.880249 247.814896,466.679230 250.572357,465.618103 
	C255.744080,462.793396 260.915802,459.968689 266.816284,456.996429 
	C272.205750,454.943176 277.595215,452.889923 283.478241,451.370697 
	C284.438629,451.426971 285.414978,451.623962 286.356812,451.517029 
	C293.196320,450.740326 300.015839,449.757874 306.868744,449.140900 
	C310.642731,448.801178 314.469086,449.043091 318.939606,449.400360 
	C332.701721,451.831238 345.673767,456.502899 358.297058,463.727783 
	C363.546539,466.480164 368.796021,469.232544 373.996613,472.001923 
	C373.996613,472.001923 374.007355,471.951294 374.026276,472.650513 
	C378.195770,475.600739 382.365265,478.550995 386.534790,481.501221 
	C386.909271,481.002075 387.283752,480.502899 387.658234,480.003723 
	C387.079590,479.345764 386.500946,478.687775 385.669495,477.449188 
	C384.766876,476.328644 383.864227,475.208130 382.984711,474.020447 
	C382.984711,474.020447 382.914581,474.031586 382.644012,473.411285 
	C380.733521,471.284271 378.822998,469.157257 376.982361,467.013947 
	C376.982361,467.013947 376.955505,467.080505 377.091187,466.377838 
	C376.363037,465.589874 375.634888,464.801880 374.978455,464.018799 
	C374.978455,464.018799 374.962372,464.088837 375.070374,463.380005 
	C374.348297,462.592194 373.626221,461.804382 372.976288,461.020874 
	C372.976288,461.020874 372.960266,461.091309 373.056641,460.378052 
	C372.341949,459.593109 371.627258,458.808167 370.981995,458.014679 
	C370.981995,458.014679 370.971619,458.083893 370.967133,457.512207 
z"/>
<path fill="#BADEE2" opacity="1.000000" stroke="none" 
	d="
M326.452820,98.083595 
	C325.658997,95.296112 324.631287,92.551727 324.108429,89.714310 
	C319.957642,67.189384 315.906036,44.646194 311.809021,22.111324 
	C311.601440,20.969547 311.217896,19.860725 310.982605,18.722853 
	C310.188446,14.882304 308.107117,12.093671 303.988525,12.239511 
	C299.712646,12.390921 298.550873,15.602498 297.879913,19.415350 
	C295.005310,35.751686 291.918488,52.050854 288.848511,68.352173 
	C288.686340,69.213142 287.969666,69.969688 287.134033,70.860077 
	C288.825012,59.645660 290.935120,48.353497 292.944427,37.043423 
	C294.048126,30.830997 294.848389,24.562716 296.039337,18.368429 
	C296.828400,14.264512 298.210632,10.410340 303.461182,10.149269 
	C308.161774,9.915546 311.221802,11.488148 312.174744,16.599520 
	C313.936432,26.048813 316.170807,35.409485 317.965942,44.853138 
	C320.558746,58.493324 322.924835,72.176521 325.411774,85.836975 
	C326.103638,89.637352 326.880524,93.422249 327.377167,97.626694 
	C326.908234,98.053963 326.680511,98.068779 326.452820,98.083595 
z"/>
<path fill="#C1D9DB" opacity="1.000000" stroke="none" 
	d="
M455.192078,588.538208 
	C459.129120,588.158508 463.262177,587.965393 467.385406,588.091553 
	C471.625122,588.221191 475.855286,588.662354 480.862457,589.265747 
	C483.905670,589.685303 486.176056,589.806335 488.446442,589.927368 
	C488.685883,589.787048 488.942444,589.739929 489.829926,589.862915 
	C490.725586,589.937378 491.007507,589.935181 491.289429,589.932983 
	C507.594635,589.915222 523.900818,589.997131 540.204651,589.840637 
	C549.338928,589.752991 558.475281,589.378113 567.596741,588.877930 
	C569.499451,588.773560 572.599487,587.899658 572.917725,586.758545 
	C573.405029,585.010620 572.015137,582.701965 571.298157,580.675171 
	C571.033875,579.928040 570.418457,579.305054 570.001160,578.267090 
	C574.715515,579.203735 576.095886,583.352783 575.743774,587.028748 
	C575.371094,590.918335 571.274170,591.056824 567.845947,591.050903 
	C535.544250,590.995422 503.241974,591.069519 470.941528,590.857300 
	C465.751465,590.823242 460.569458,589.559998 455.192078,588.538208 
z"/>
<path fill="#BADEE2" opacity="1.000000" stroke="none" 
	d="
M260.054321,208.033829 
	C257.340668,220.333786 254.850433,232.688507 251.851471,244.918472 
	C248.767105,257.496704 245.214142,269.960846 241.777985,282.450623 
	C241.452240,283.634644 240.497253,284.645538 239.496765,285.794678 
	C245.060074,262.730438 250.983490,239.614014 256.831360,216.478485 
	C257.502899,213.821716 257.752899,211.058365 258.835999,208.170258 
	C259.667206,208.008682 259.860748,208.021255 260.054321,208.033829 
z"/>
<path fill="#C1D9DB" opacity="1.000000" stroke="none" 
	d="
M82.028320,588.160706 
	C94.502151,587.762512 106.980949,587.477112 119.448257,586.929993 
	C129.246475,586.500000 139.027649,585.691284 148.823486,585.188599 
	C150.576782,585.098694 152.364548,585.680359 154.535080,585.982056 
	C152.012405,586.703613 149.110733,587.887817 146.166473,588.005371 
	C129.056229,588.688538 111.935966,589.120850 94.035034,589.379089 
	C91.174248,589.321289 89.097504,589.522339 87.020767,589.723389 
	C85.579369,589.963135 84.137962,590.202820 82.341187,590.215881 
	C81.999977,589.379761 82.014145,588.770203 82.028320,588.160706 
z"/>
<path fill="#BADEE2" opacity="1.000000" stroke="none" 
	d="
M367.455109,279.872437 
	C364.695129,271.703735 361.960754,263.417755 359.892944,254.968643 
	C356.366577,240.559601 353.258698,226.048126 350.014160,211.220520 
	C351.369507,214.294724 353.076447,217.633240 353.937042,221.177277 
	C358.665924,240.651001 363.187683,260.175018 367.455109,279.872437 
z"/>
<path fill="#CBE5E8" opacity="1.000000" stroke="none" 
	d="
M133.647156,493.043610 
	C133.436081,494.238770 133.251862,495.898346 132.328720,496.807953 
	C120.171669,508.786804 107.923073,520.672974 95.645805,532.528870 
	C94.864403,533.283447 93.657776,533.597717 92.287781,534.041016 
	C105.727890,520.363281 119.529205,506.761353 133.647156,493.043610 
z"/>
<path fill="#CBE5E8" opacity="1.000000" stroke="none" 
	d="
M81.559799,588.104126 
	C82.014145,588.770203 81.999977,589.379761 81.980988,590.295593 
	C67.692162,590.632690 53.408154,590.663452 38.900429,590.279724 
	C39.737709,589.522156 40.791847,588.904541 41.860756,588.877808 
	C54.936340,588.550842 68.014091,588.310425 81.559799,588.104126 
z"/>
<path fill="#CBE5E8" opacity="1.000000" stroke="none" 
	d="
M326.492493,98.536392 
	C326.680511,98.068779 326.908234,98.053963 327.476746,98.008064 
	C330.746338,113.004692 333.679108,128.031631 336.594360,143.061981 
	C336.775085,143.993881 336.817932,144.952530 336.868774,146.278961 
	C336.081146,145.687744 334.888824,144.802872 334.687683,143.731857 
	C331.889771,128.832550 329.227509,113.907761 326.492493,98.536392 
z"/>
<path fill="#CBE5E8" opacity="1.000000" stroke="none" 
	d="
M76.632011,546.992554 
	C75.300667,548.802612 73.804337,550.908813 71.885338,552.507812 
	C64.430649,558.719238 56.854408,564.785400 49.282650,570.854858 
	C48.546757,571.444702 47.529846,571.683960 46.280350,572.026794 
	C47.581783,570.142578 49.032963,568.046692 50.947598,566.539490 
	C59.315990,559.951660 67.818810,553.534668 76.632011,546.992554 
z"/>
<path fill="#ADCFD4" opacity="1.000000" stroke="none" 
	d="
M406.918945,390.692444 
	C406.233551,390.585785 405.283844,390.224274 405.029877,389.585968 
	C399.360504,375.336823 393.767761,361.057159 388.194702,346.409363 
	C388.766571,346.278168 389.637054,346.388397 389.794037,346.782715 
	C395.563324,361.275024 401.266449,375.793640 406.918945,390.692444 
z"/>
<path fill="#C1D9DB" opacity="1.000000" stroke="none" 
	d="
M539.126709,552.822144 
	C538.109863,552.773682 536.588318,552.774719 535.704834,552.024414 
	C526.158020,543.916504 516.705627,535.697388 507.255890,527.475891 
	C506.795532,527.075378 506.599976,526.370544 506.276978,525.481689 
	C509.245728,527.342285 512.367798,529.354248 515.163086,531.747986 
	C523.152588,538.589844 531.009338,545.586731 539.126709,552.822144 
z"/>
<path fill="#ADCFD4" opacity="1.000000" stroke="none" 
	d="
M202.642517,389.074768 
	C201.914124,391.983551 201.235626,395.244873 199.753036,398.086731 
	C194.416611,408.315613 188.808914,418.402985 182.729691,428.773682 
	C181.759949,428.998260 181.364227,428.992981 180.968491,428.987732 
	C188.086838,415.736755 195.205170,402.485809 202.642517,389.074768 
z"/>
<path fill="#ADCFD4" opacity="1.000000" stroke="none" 
	d="
M228.602875,321.177368 
	C227.643524,326.033173 226.642624,331.159393 225.021881,336.081512 
	C222.744980,342.996368 220.007645,349.759644 216.967926,356.803894 
	C216.468597,357.020050 216.065643,357.018951 216.065643,357.018951 
	C219.229126,347.703644 222.385773,338.386017 225.560562,329.074585 
	C226.440933,326.492523 227.375198,323.928802 228.602875,321.177368 
z"/>
<path fill="#CBE5E8" opacity="1.000000" stroke="none" 
	d="
M155.616455,466.961426 
	C154.278824,469.683380 152.869125,472.690948 150.808105,475.153351 
	C146.259506,480.587708 141.382782,485.747437 136.285782,491.005341 
	C138.289490,487.620270 140.452072,484.089172 143.050888,480.915253 
	C146.956512,476.145447 151.167694,471.625793 155.616455,466.961426 
z"/>
<path fill="#ADCFD4" opacity="1.000000" stroke="none" 
	d="
M367.946594,563.244934 
	C369.188934,563.272156 370.691223,563.442993 372.029541,564.004700 
	C380.403015,567.518982 388.756653,571.082275 397.067535,574.741455 
	C398.106689,575.198975 398.855530,576.315918 399.707275,577.476196 
	C389.160736,573.073120 378.645752,568.321167 367.946594,563.244934 
z"/>
<path fill="#ADCFD4" opacity="1.000000" stroke="none" 
	d="
M228.284592,570.083130 
	C228.453644,569.372253 228.849823,568.293884 229.605988,567.890808 
	C238.682739,563.051880 247.807480,558.302734 256.939209,553.567810 
	C257.652832,553.197754 258.512177,553.108521 259.681519,552.953491 
	C251.406769,558.003662 242.777740,563.030884 234.081100,567.938232 
	C232.416946,568.877258 230.486542,569.344482 228.284592,570.083130 
z"/>
<path fill="#ADCFD4" opacity="1.000000" stroke="none" 
	d="
M260.037109,208.022110 
	C259.860748,208.021255 259.667206,208.008682 259.183594,207.973572 
	C261.279541,196.575607 263.665558,185.200150 266.417023,173.413696 
	C267.155640,172.974365 267.528809,172.946045 267.901978,172.917709 
	C266.457031,180.079681 265.012054,187.241653 263.056396,194.921173 
	C262.386749,196.369980 262.227814,197.301208 262.068878,198.232437 
	C262.068878,198.232437 262.095123,198.587372 261.795258,199.021759 
	C261.361359,200.438889 261.227325,201.421631 261.093292,202.404358 
	C261.183289,202.711349 261.209503,203.023697 260.855469,203.848969 
	C260.365997,205.585205 260.193024,206.813889 260.020050,208.042572 
	C260.020050,208.042572 260.019958,208.010391 260.037109,208.022110 
z"/>
<path fill="#B7C6C8" opacity="1.000000" stroke="none" 
	d="
M267.973877,172.522858 
	C267.528809,172.946045 267.155640,172.974365 266.501740,173.016510 
	C267.649017,165.761292 269.081635,158.493179 270.503021,151.222870 
	C271.148804,147.919724 271.772247,144.612198 272.743958,141.063339 
	C272.847046,144.316010 272.917419,147.865845 272.312897,151.296738 
	C271.083405,158.274475 269.489532,165.188004 267.973877,172.522858 
z"/>
<path fill="#ADCFD4" opacity="1.000000" stroke="none" 
	d="
M501.833954,521.465881 
	C499.926636,520.225220 497.660889,518.899231 495.854828,517.109436 
	C490.820343,512.120361 485.976501,506.938995 481.257660,501.442444 
	C481.658997,501.026978 481.860046,501.002625 482.061127,500.978241 
	C487.910065,506.460114 493.801331,511.898163 499.566986,517.466248 
	C500.549103,518.414673 500.992859,519.920593 501.833954,521.465881 
z"/>
<path fill="#ADCFD4" opacity="1.000000" stroke="none" 
	d="
M459.070740,474.599762 
	C458.469940,474.808899 457.559662,474.875488 457.277588,474.486542 
	C451.786102,466.914154 446.367828,459.288696 440.978821,451.302826 
	C445.675476,456.898804 450.334717,462.860718 454.976105,468.836487 
	C456.360962,470.619446 457.695953,472.441193 459.070740,474.599762 
z"/>
<path fill="#B7C6C8" opacity="1.000000" stroke="none" 
	d="
M346.322998,192.990143 
	C344.184906,184.457642 342.371399,175.672928 340.742645,166.574432 
	C342.592224,172.864899 344.329346,179.452240 345.880463,186.083099 
	C346.385712,188.242996 346.405701,190.516434 346.322998,192.990143 
z"/>
<path fill="#BADEE2" opacity="1.000000" stroke="none" 
	d="
M180.209717,430.783844 
	C176.558212,437.430634 172.555893,444.135468 168.217438,450.913025 
	C171.190994,445.296417 174.500687,439.607056 178.147034,433.699402 
	C178.483688,433.481049 178.540359,433.267212 178.540375,433.267212 
	C178.979874,432.458771 179.419373,431.650330 180.209717,430.783844 
z"/>
<path fill="#BADEE2" opacity="1.000000" stroke="none" 
	d="
M215.765335,357.228729 
	C216.065643,357.018951 216.468597,357.020050 216.667694,356.998199 
	C214.131775,363.890106 211.396774,370.803864 208.334015,377.777252 
	C210.492508,371.037415 212.978760,364.237946 215.765335,357.228729 
z"/>
<path fill="#CBE5E8" opacity="1.000000" stroke="none" 
	d="
M412.423798,581.021973 
	C414.731537,581.155762 417.428040,581.264282 420.031738,581.813049 
	C424.620544,582.780090 429.152679,584.015991 433.784851,585.489380 
	C426.285126,586.770264 419.733337,583.049927 412.423798,581.021973 
z"/>
<path fill="#CBE5E8" opacity="1.000000" stroke="none" 
	d="
M297.325073,532.910400 
	C301.264282,529.123169 305.924957,530.411072 310.680969,532.487610 
	C306.435486,532.882080 302.116974,532.936218 297.325073,532.910400 
z"/>
<path fill="#CBE5E8" opacity="1.000000" stroke="none" 
	d="
M481.937469,500.658569 
	C481.860046,501.002625 481.658997,501.026978 481.161682,501.121796 
	C477.626770,497.638672 474.388092,494.085114 471.092529,490.188904 
	C474.628387,493.343781 478.221100,496.841339 481.937469,500.658569 
z"/>
<path fill="#ADCFD4" opacity="1.000000" stroke="none" 
	d="
M464.850403,481.822235 
	C462.870392,480.005371 460.916168,477.829956 459.004944,475.289612 
	C460.990662,477.104401 462.933441,479.284027 464.850403,481.822235 
z"/>
<path fill="#CBE5E8" opacity="1.000000" stroke="none" 
	d="
M89.625443,535.948975 
	C87.866508,537.952209 85.757355,539.990784 83.283737,542.003479 
	C85.037926,539.979797 87.156578,537.982056 89.625443,535.948975 
z"/>
<path fill="#ADCFD4" opacity="1.000000" stroke="none" 
	d="
M260.367920,552.995667 
	C262.154083,551.446289 264.299042,549.828735 266.787720,548.102051 
	C264.996552,549.637817 262.861633,551.282654 260.367920,552.995667 
z"/>
<path fill="#ADCFD4" opacity="1.000000" stroke="none" 
	d="
M358.919067,558.230835 
	C361.489136,559.313538 364.254150,560.711975 367.143860,562.441956 
	C364.550385,561.364563 361.832184,559.955566 358.919067,558.230835 
z"/>
<path fill="#CBE5E8" opacity="1.000000" stroke="none" 
	d="
M39.631165,576.943359 
	C38.261814,578.466553 36.542927,580.090088 34.498535,581.732422 
	C35.875896,580.182068 37.578762,578.612915 39.631165,576.943359 
z"/>
<path fill="#ADCFD4" opacity="1.000000" stroke="none" 
	d="
M441.029999,450.633423 
	C439.685730,449.214142 438.300201,447.441681 436.976013,445.297302 
	C438.354462,446.710358 439.671570,448.495300 441.029999,450.633423 
z"/>
<path fill="#C1D9DB" opacity="1.000000" stroke="none" 
	d="
M544.921631,557.675842 
	C543.349792,556.814636 541.642334,555.643738 539.914551,554.086426 
	C541.524902,554.922119 543.155518,556.144165 544.921631,557.675842 
z"/>
<path fill="#CBE5E8" opacity="1.000000" stroke="none" 
	d="
M82.639389,541.964355 
	C81.541344,543.319946 80.101250,544.724365 78.298111,546.049805 
	C79.389160,544.651611 80.843246,543.332397 82.639389,541.964355 
z"/>
<path fill="#ADCFD4" opacity="1.000000" stroke="none" 
	d="
M351.874268,554.222168 
	C353.808380,554.973694 355.925446,556.041260 358.172729,557.448303 
	C356.221039,556.704590 354.139130,555.621399 351.874268,554.222168 
z"/>
<path fill="#C1D9DB" opacity="1.000000" stroke="none" 
	d="
M569.946533,577.650085 
	C568.364624,576.852539 566.646851,575.746704 564.986145,574.278442 
	C566.632324,575.057922 568.221497,576.199890 569.946533,577.650085 
z"/>
<path fill="#C1D9DB" opacity="1.000000" stroke="none" 
	d="
M549.922363,561.671631 
	C548.365356,560.875000 546.673706,559.772461 544.995056,558.305420 
	C546.601257,559.082520 548.194519,560.224182 549.922363,561.671631 
z"/>
<path fill="#ADCFD4" opacity="1.000000" stroke="none" 
	d="
M427.008972,428.626709 
	C426.000275,427.465851 424.920288,425.956879 423.877808,424.048492 
	C424.922791,425.192230 425.930267,426.735382 427.008972,428.626709 
z"/>
<path fill="#BADEE2" opacity="1.000000" stroke="none" 
	d="
M337.035034,545.382935 
	C338.589935,545.821472 340.255005,546.590576 341.948639,547.720093 
	C340.366516,547.291443 338.755890,546.502502 337.035034,545.382935 
z"/>
<path fill="#CBE5E8" opacity="1.000000" stroke="none" 
	d="
M44.631420,572.938904 
	C43.858246,573.950012 42.744801,574.995422 41.264206,575.995850 
	C42.028423,574.958374 43.159786,573.965759 44.631420,572.938904 
z"/>
<path fill="#CBE5E8" opacity="1.000000" stroke="none" 
	d="
M158.663239,463.036621 
	C158.196045,464.256073 157.419495,465.590210 156.282867,466.958801 
	C156.733139,465.712616 157.543503,464.431976 158.663239,463.036621 
z"/>
<path fill="#C1D9DB" opacity="1.000000" stroke="none" 
	d="
M559.935730,569.664124 
	C558.672607,569.114502 557.274353,568.249512 555.891479,566.990295 
	C557.204773,567.513611 558.502625,568.431213 559.935730,569.664124 
z"/>
<path fill="#ADCFD4" opacity="1.000000" stroke="none" 
	d="
M423.035339,421.637573 
	C422.112274,420.874634 421.154449,419.768982 420.186462,418.321289 
	C421.117737,419.084442 422.059174,420.189667 423.035339,421.637573 
z"/>
<path fill="#CBE5E8" opacity="1.000000" stroke="none" 
	d="
M161.638626,459.033417 
	C161.185043,460.252899 160.409897,461.586029 159.275848,462.953644 
	C159.716995,461.707794 160.517029,460.427429 161.638626,459.033417 
z"/>
<path fill="#C1D9DB" opacity="1.000000" stroke="none" 
	d="
M564.937378,573.649475 
	C563.711487,573.183777 562.348999,572.413147 561.011108,571.276306 
	C562.290771,571.721619 563.545715,572.533081 564.937378,573.649475 
z"/>
<path fill="#ADCFD4" opacity="1.000000" stroke="none" 
	d="
M430.017578,433.633057 
	C429.038391,432.538239 427.998047,431.099670 426.996826,429.292969 
	C428.009491,430.379669 428.982971,431.834503 430.017578,433.633057 
z"/>
<path fill="#ADCFD4" opacity="1.000000" stroke="none" 
	d="
M347.051392,551.361816 
	C348.318420,551.731812 349.706909,552.415955 351.225769,553.445923 
	C349.961700,553.086548 348.567291,552.381226 347.051392,551.361816 
z"/>
<path fill="#B7C6C8" opacity="1.000000" stroke="none" 
	d="
M87.453125,589.729248 
	C89.097504,589.522339 91.174248,589.321289 93.570145,589.275269 
	C91.888023,589.531921 89.886757,589.633545 87.453125,589.729248 
z"/>
<path fill="#ADCFD4" opacity="1.000000" stroke="none" 
	d="
M432.816132,437.964905 
	C431.811249,437.093933 430.854034,435.867767 429.967590,434.285278 
	C430.980194,435.155914 431.921997,436.382782 432.816132,437.964905 
z"/>
<path fill="#BADEE2" opacity="1.000000" stroke="none" 
	d="
M342.024139,548.344971 
	C343.188629,548.452148 344.449768,548.859924 345.837646,549.767395 
	C345.964447,550.267090 345.978119,550.650513 345.978119,550.650513 
	C344.692352,549.982178 343.406555,549.313843 342.024139,548.344971 
z"/>
<path fill="#C1D9DB" opacity="1.000000" stroke="none" 
	d="
M553.246582,564.208923 
	C552.177246,563.908020 551.069580,563.294556 549.988281,562.310547 
	C551.079163,562.592163 552.143677,563.244263 553.246582,564.208923 
z"/>
<path fill="#BADEE2" opacity="1.000000" stroke="none" 
	d="
M334.014191,543.363220 
	C334.916443,543.492432 335.914978,543.930054 336.942566,544.724487 
	C336.017914,544.611389 335.064178,544.141479 334.014191,543.363220 
z"/>
<path fill="#ADCFD4" opacity="1.000000" stroke="none" 
	d="
M435.020538,441.644287 
	C434.341431,441.159241 433.605927,440.334625 432.893127,439.128723 
	C433.598602,439.599792 434.281372,440.452240 435.020538,441.644287 
z"/>
<path fill="#ADCFD4" opacity="1.000000" stroke="none" 
	d="
M437.034058,444.648010 
	C436.359528,444.201965 435.637207,443.426514 434.972778,442.290558 
	C435.682556,442.726227 436.334381,443.522400 437.034058,444.648010 
z"/>
<path fill="#CBE5E8" opacity="1.000000" stroke="none" 
	d="
M163.493515,456.201965 
	C163.628647,456.661163 163.513535,457.248688 163.135651,457.913696 
	C162.996338,457.437531 163.119797,456.883942 163.493515,456.201965 
z"/>
<path fill="#BADEE2" opacity="1.000000" stroke="none" 
	d="
M180.759659,429.025513 
	C181.364227,428.992981 181.759949,428.998260 182.448212,428.977173 
	C182.135941,429.556091 181.531158,430.161377 180.598755,430.631470 
	C180.364365,430.018646 180.457596,429.540985 180.759659,429.025513 
z"/>
<path fill="#ADCFD4" opacity="1.000000" stroke="none" 
	d="
M466.813293,484.539612 
	C466.293304,484.373352 465.737732,483.941315 465.155640,483.220551 
	C465.678680,483.379181 466.228210,483.826508 466.813293,484.539612 
z"/>
<path fill="#BADEE2" opacity="1.000000" stroke="none" 
	d="
M167.684677,450.986816 
	C167.571762,451.549469 167.176392,452.211578 166.462524,452.916443 
	C166.563416,452.334900 166.982819,451.710571 167.684677,450.986816 
z"/>
<path fill="#ADCFD4" opacity="1.000000" stroke="none" 
	d="
M502.894867,522.529297 
	C502.687469,522.598938 502.439575,522.488770 502.211548,522.195923 
	C502.499573,522.013428 502.707245,522.125549 502.894867,522.529297 
z"/>
<path fill="#C1D9DB" opacity="1.000000" stroke="none" 
	d="
M555.168213,565.804260 
	C554.705811,565.888062 554.017761,565.679810 553.234375,565.110718 
	C553.740234,565.004028 554.341431,565.258118 555.168213,565.804260 
z"/>
<path fill="#BADEE2" opacity="1.000000" stroke="none" 
	d="
M332.015350,542.375732 
	C332.541229,542.188782 333.158875,542.316956 333.881256,542.766968 
	C333.359680,542.956116 332.733429,542.823425 332.015350,542.375732 
z"/>
<path fill="#CBE5E8" opacity="1.000000" stroke="none" 
	d="
M162.721802,457.967773 
	C162.803574,458.187195 162.625595,458.505737 162.184006,458.910675 
	C162.100937,458.687042 162.281509,458.376953 162.721802,457.967773 
z"/>
<path fill="#CBE5E8" opacity="1.000000" stroke="none" 
	d="
M40.717758,575.979858 
	C40.791313,576.213806 40.591644,576.515869 40.119858,576.895142 
	C40.046673,576.664246 40.245602,576.356140 40.717758,575.979858 
z"/>
<path fill="#BADEE2" opacity="1.000000" stroke="none" 
	d="
M350.081360,210.777588 
	C349.772217,210.891617 349.594818,210.687225 349.729584,210.268341 
	C349.841095,210.163300 350.012482,210.568604 350.081360,210.777588 
z"/>
<path fill="#CBE5E8" opacity="1.000000" stroke="none" 
	d="
M90.741768,535.005371 
	C90.813507,535.218750 90.622864,535.516418 90.175415,535.908752 
	C90.105537,535.698792 90.292458,535.394226 90.741768,535.005371 
z"/>
<path fill="#CBE5E8" opacity="1.000000" stroke="none" 
	d="
M45.737587,572.002930 
	C45.809624,572.218445 45.617752,572.514709 45.170212,572.905273 
	C45.100918,572.694214 45.287300,572.388916 45.737587,572.002930 
z"/>
<path fill="#C1D9DB" opacity="1.000000" stroke="none" 
	d="
M560.989197,570.734375 
	C560.772766,570.809448 560.466248,570.627930 560.077759,570.185791 
	C560.296936,570.109375 560.598022,570.293579 560.989197,570.734375 
z"/>
<path fill="#CBE5E8" opacity="1.000000" stroke="none" 
	d="
M135.753662,491.021057 
	C135.826324,491.237305 135.644836,491.546326 135.195892,491.929352 
	C135.118805,491.706818 135.309174,491.410339 135.753662,491.021057 
z"/>
<path fill="#ADCFD4" opacity="1.000000" stroke="none" 
	d="
M346.209198,550.805664 
	C345.978119,550.650513 345.964447,550.267090 346.000122,550.077271 
	C346.309082,550.110962 346.582367,550.334534 346.920227,550.817383 
	C346.803284,551.038086 346.621765,550.999512 346.209198,550.805664 
z"/>
<path fill="#CBE5E8" opacity="1.000000" stroke="none" 
	d="
M134.735504,492.005615 
	C134.831284,492.256622 134.665268,492.583954 134.211487,492.948883 
	C134.107056,492.684967 134.290390,492.383484 134.735504,492.005615 
z"/>
<path fill="#56D4E0" opacity="1.000000" stroke="none" 
	d="
M178.486023,433.211670 
	C178.540359,433.267212 178.483688,433.481049 178.431381,433.430542 
	C178.379074,433.380035 178.431686,433.156128 178.486023,433.211670 
z"/>
<path fill="#ADCFD4" opacity="1.000000" stroke="none" 
	d="
M423.850891,423.042419 
	C423.582764,423.064362 423.340240,422.776794 423.056824,422.209717 
	C423.302765,422.197784 423.589600,422.465363 423.850891,423.042419 
z"/>
<path fill="#CBE5E8" opacity="1.000000" stroke="none" 
	d="
M77.733246,546.015747 
	C77.825394,546.253235 77.660286,546.576050 77.211533,546.950378 
	C77.110596,546.701660 77.293297,546.401306 77.733246,546.015747 
z"/>
<path fill="#CBE5E8" opacity="1.000000" stroke="none" 
	d="
M91.731400,534.004456 
	C91.817345,534.236145 91.641090,534.549194 91.192261,534.931091 
	C91.102859,534.695190 91.286034,534.390564 91.731400,534.004456 
z"/>
<path fill="#BADEE2" opacity="1.000000" stroke="none" 
	d="
M330.996704,541.348755 
	C331.230591,541.252014 331.538910,541.409912 331.912750,541.826050 
	C331.675903,541.923889 331.373535,541.763611 330.996704,541.348755 
z"/>
<path fill="#000000" opacity="1.000000" stroke="none" 
	d="
M282.984680,450.836670 
	C277.595215,452.889923 272.205750,454.943176 266.065002,456.990967 
	C260.187988,459.664062 255.062286,462.342560 249.579910,465.053772 
	C247.123291,466.386658 245.023376,467.686859 242.923462,468.987061 
	C242.923447,468.987061 242.996445,468.989990 242.675354,469.034180 
	C241.546860,469.719849 240.739456,470.361328 239.932068,471.002808 
	C239.932068,471.002838 240.008011,471.003510 239.649460,471.049622 
	C235.851685,473.115173 232.412445,475.134613 228.711334,477.030151 
	C228.219681,476.605530 227.989914,476.304749 227.883286,475.674805 
	C231.702820,469.571960 235.399200,463.798248 239.095551,458.024536 
	C239.095551,458.024536 239.024490,458.017456 239.361237,457.918030 
	C241.745743,453.975189 243.793518,450.131836 245.841278,446.288452 
	C252.706223,435.139771 258.816528,423.615601 263.942352,410.988525 
	C266.470734,405.499573 268.324677,400.288086 270.522827,394.906616 
	C271.363861,392.898895 271.874420,391.064728 272.354919,389.222687 
	C273.936462,383.159729 275.507111,377.093903 277.432434,370.851685 
	C278.168213,369.132294 278.611816,367.602386 278.929230,366.046692 
	C280.912476,356.326508 282.867554,346.600586 284.831970,336.876556 
	C286.568756,329.528656 288.618439,322.238068 289.977417,314.820923 
	C292.842651,299.182678 295.361206,283.480652 297.970520,267.796204 
	C298.186493,266.497986 298.011963,265.134827 298.393677,263.238037 
	C300.162109,254.585297 301.630249,246.508209 302.919556,238.402679 
	C303.624237,233.972519 304.026367,229.494232 304.564941,225.037659 
	C306.081482,229.228775 306.393829,233.362000 307.076172,237.433197 
	C308.237854,244.364639 309.632233,251.257065 310.928833,258.165894 
	C311.230072,259.568298 311.531342,260.970734 311.550964,262.903381 
	C311.235382,264.426819 311.040985,265.445068 311.191589,266.409454 
	C313.481415,281.069214 315.693970,295.743103 318.221527,310.362335 
	C318.907654,314.330933 320.576569,318.129639 321.794464,322.006317 
	C323.858459,331.459991 325.922485,340.913635 328.013550,351.160767 
	C332.303925,371.061523 337.402954,389.917206 345.000549,408.414948 
	C350.640045,420.522217 356.207092,432.256989 361.774170,443.991760 
	C363.681061,446.985779 365.587952,449.979828 367.791382,453.441711 
	C368.684998,454.613434 369.282074,455.317261 369.879150,456.021088 
	C369.879181,456.021088 369.936646,456.410400 369.986816,456.890442 
	C370.348541,457.608246 370.660095,457.846069 370.971619,458.083893 
	C370.971619,458.083893 370.981995,458.014679 370.983948,458.354523 
	C371.644043,459.493347 372.302155,460.292328 372.960266,461.091309 
	C372.960266,461.091309 372.976288,461.020874 372.989563,461.353180 
	C373.656036,462.486603 374.309204,463.287720 374.962372,464.088837 
	C374.962372,464.088837 374.978455,464.018799 374.998993,464.347748 
	C375.664856,465.477966 376.310181,466.279236 376.955505,467.080505 
	C376.955505,467.080505 376.982361,467.013947 376.985718,467.386536 
	C378.319855,469.855469 379.650574,471.951843 380.941803,474.405457 
	C378.603973,473.825562 376.305664,472.888428 374.007355,471.951294 
	C374.007355,471.951294 373.996613,472.001923 373.877991,471.673340 
	C368.488800,468.614685 363.218231,465.884613 357.947662,463.154541 
	C345.673767,456.502899 332.701721,451.831238 318.384216,448.821838 
	C305.996918,446.189728 294.388062,447.132690 282.984680,450.836670 
z"/>
<path fill="#C1D9DB" opacity="1.000000" stroke="none" 
	d="
M311.237518,257.908875 
	C309.632233,251.257065 308.237854,244.364639 307.076172,237.433197 
	C306.393829,233.362000 306.081482,229.228775 304.564941,225.037659 
	C304.026367,229.494232 303.624237,233.972519 302.919556,238.402679 
	C301.630249,246.508209 300.162109,254.585297 298.393188,262.793518 
	C299.318970,251.602051 300.577667,240.286163 301.938782,228.982635 
	C302.637177,223.182922 303.518494,217.405228 304.317169,211.617569 
	C304.752014,211.610214 305.186859,211.602844 305.621735,211.595474 
	C306.635071,218.622009 307.739014,225.636963 308.638275,232.678055 
	C309.699982,240.990860 310.584717,249.326248 311.237518,257.908875 
z"/>
<path fill="#C1D9DB" opacity="1.000000" stroke="none" 
	d="
M322.072449,321.779419 
	C320.576569,318.129639 318.907654,314.330933 318.221527,310.362335 
	C315.693970,295.743103 313.481415,281.069214 311.191589,266.409454 
	C311.040985,265.445068 311.235382,264.426819 311.607147,263.221832 
	C313.628113,271.430481 315.401794,279.834045 316.971008,288.275665 
	C318.851929,298.393951 320.570892,308.542542 322.319550,318.684937 
	C322.479919,319.614929 322.347107,320.595428 322.072449,321.779419 
z"/>
<path fill="#BADEE2" opacity="1.000000" stroke="none" 
	d="
M344.928101,408.042450 
	C337.402954,389.917206 332.303925,371.061523 328.101562,351.559967 
	C328.747467,351.838531 329.636780,352.419098 329.872650,353.197632 
	C335.323822,371.190948 340.703979,389.205750 345.826996,407.614685 
	C345.347137,408.022705 345.137604,408.032593 344.928101,408.042450 
z"/>
<path fill="#BADEE2" opacity="1.000000" stroke="none" 
	d="
M284.483734,337.008667 
	C282.867554,346.600586 280.912476,356.326508 278.929230,366.046692 
	C278.611816,367.602386 278.168213,369.132294 277.170197,370.846039 
	C276.382629,371.015961 276.207794,371.013947 276.032990,371.011963 
	C278.733856,359.721588 281.434692,348.431183 284.483734,337.008667 
z"/>
<path fill="#ADCFD4" opacity="1.000000" stroke="none" 
	d="
M345.000549,408.414948 
	C345.137604,408.032593 345.347137,408.022705 345.872620,408.006958 
	C351.549683,419.250946 356.920044,430.496429 362.241516,441.765045 
	C362.480621,442.271423 362.275848,442.987396 362.026001,443.798767 
	C356.207092,432.256989 350.640045,420.522217 345.000549,408.414948 
z"/>
<path fill="#CBE5E8" opacity="1.000000" stroke="none" 
	d="
M283.231445,451.103699 
	C294.388062,447.132690 305.996918,446.189728 318.050323,448.633057 
	C314.469086,449.043091 310.642731,448.801178 306.868744,449.140900 
	C300.015839,449.757874 293.196320,450.740326 286.356812,451.517029 
	C285.414978,451.623962 284.438629,451.426971 283.231445,451.103699 
z"/>
<path fill="#C1D9DB" opacity="1.000000" stroke="none" 
	d="
M275.759216,371.267609 
	C276.207794,371.013947 276.382629,371.015961 276.819733,371.023560 
	C275.507111,377.093903 273.936462,383.159729 272.354919,389.222687 
	C271.874420,391.064728 271.363861,392.898895 270.198792,394.878510 
	C269.098816,395.003937 268.667145,394.987518 268.235443,394.971130 
	C270.652130,387.155182 273.068787,379.339203 275.759216,371.267609 
z"/>
<path fill="#ADCFD4" opacity="1.000000" stroke="none" 
	d="
M238.749268,458.055389 
	C235.399200,463.798248 231.702820,469.571960 227.649658,475.681274 
	C227.292892,476.016876 226.830658,475.946899 226.830658,475.946899 
	C227.643707,474.069702 228.184753,472.005188 229.323212,470.352081 
	C232.206787,466.164978 235.358566,462.162598 238.749268,458.055389 
z"/>
<path fill="#ADCFD4" opacity="1.000000" stroke="none" 
	d="
M358.122375,463.441162 
	C363.218231,465.884613 368.488800,468.614685 373.902435,471.664856 
	C368.796021,469.232544 363.546539,466.480164 358.122375,463.441162 
z"/>
<path fill="#ADCFD4" opacity="1.000000" stroke="none" 
	d="
M374.016815,472.300903 
	C376.305664,472.888428 378.603973,473.825562 381.261658,474.355774 
	C382.052216,473.976410 382.483398,474.003998 382.914581,474.031586 
	C382.914581,474.031586 382.984711,474.020447 382.945740,474.370178 
	C381.722473,477.817932 383.875458,477.875519 385.922302,478.029816 
	C386.500946,478.687775 387.079590,479.345764 387.658234,480.003723 
	C387.283752,480.502899 386.909271,481.002075 386.534790,481.501221 
	C382.365265,478.550995 378.195770,475.600739 374.016815,472.300903 
z"/>
<path fill="#ADCFD4" opacity="1.000000" stroke="none" 
	d="
M249.936584,465.021057 
	C255.062286,462.342560 260.187988,459.664062 265.700623,457.064758 
	C260.915802,459.968689 255.744080,462.793396 250.236877,465.436157 
	C249.901413,465.254181 249.936584,465.021057 249.936584,465.021057 
z"/>
<path fill="#CBE5E8" opacity="1.000000" stroke="none" 
	d="
M216.032562,489.022827 
	C218.441559,485.699646 220.850571,482.376465 223.577118,479.294861 
	C223.969818,480.709290 224.044968,481.882141 224.120117,483.054993 
	C221.634964,484.999054 219.149826,486.943115 216.333755,488.943115 
	C216.002838,488.999084 216.032562,489.022827 216.032562,489.022827 
z"/>
<path fill="#B7C6C8" opacity="1.000000" stroke="none" 
	d="
M268.172852,395.355042 
	C268.667145,394.987518 269.098816,395.003937 269.854553,395.048462 
	C268.324677,400.288086 266.470734,405.499573 264.234619,410.772705 
	C265.271667,405.802551 266.690948,400.770752 268.172852,395.355042 
z"/>
<path fill="#C1D9DB" opacity="1.000000" stroke="none" 
	d="
M228.973206,477.154022 
	C232.412445,475.134613 235.851685,473.115173 239.650467,471.011658 
	C236.243317,473.708008 232.476608,476.488434 228.435791,478.994324 
	C228.432159,478.197845 228.702682,477.675934 228.973206,477.154022 
z"/>
<path fill="#ADCFD4" opacity="1.000000" stroke="none" 
	d="
M245.524612,446.317810 
	C243.793518,450.131836 241.745743,453.975189 239.367462,457.953186 
	C241.093948,454.174225 243.150955,450.260712 245.524612,446.317810 
z"/>
<path fill="#CBE5E8" opacity="1.000000" stroke="none" 
	d="
M382.779297,473.721436 
	C382.483398,474.003998 382.052216,473.976410 381.301178,473.998505 
	C379.650574,471.951843 378.319855,469.855469 376.950806,467.394714 
	C378.822998,469.157257 380.733521,471.284271 382.779297,473.721436 
z"/>
<path fill="#C1D9DB" opacity="1.000000" stroke="none" 
	d="
M249.579895,465.053741 
	C249.936584,465.021057 249.901413,465.254181 249.893829,465.366211 
	C247.814896,466.679230 245.743561,467.880249 243.297852,469.034180 
	C245.023376,467.686859 247.123291,466.386658 249.579895,465.053741 
z"/>
<path fill="#C1D9DB" opacity="1.000000" stroke="none" 
	d="
M224.314056,482.945709 
	C224.044968,481.882141 223.969818,480.709290 223.906342,479.225586 
	C224.129730,478.390411 224.341415,477.866058 225.035767,477.354797 
	C225.677261,477.913086 225.836060,478.458282 225.743774,479.230652 
	C225.336411,480.345428 225.180145,481.233002 225.023865,482.120544 
	C224.924561,482.411560 224.752609,482.650177 224.314056,482.945709 
z"/>
<path fill="#CBE5E8" opacity="1.000000" stroke="none" 
	d="
M385.795898,477.739502 
	C383.875458,477.875519 381.722473,477.817932 382.934143,474.403748 
	C383.864227,475.208130 384.766876,476.328644 385.795898,477.739502 
z"/>
<path fill="#CBE5E8" opacity="1.000000" stroke="none" 
	d="
M225.994873,479.003448 
	C225.836060,478.458282 225.677261,477.913086 225.277557,477.198303 
	C225.449738,476.694489 225.862778,476.360291 226.553238,475.986511 
	C226.830658,475.946899 227.292892,476.016876 227.526520,476.010437 
	C227.989914,476.304749 228.219681,476.605530 228.711319,477.030151 
	C228.702682,477.675934 228.432159,478.197845 228.061554,479.002930 
	C227.961456,479.286102 227.678040,479.306549 227.215897,479.173767 
	C226.528885,479.044189 226.304001,479.047424 226.058548,479.037964 
	C226.037964,479.025269 225.994873,479.003448 225.994873,479.003448 
z"/>
<path fill="#CBE5E8" opacity="1.000000" stroke="none" 
	d="
M488.082520,589.698669 
	C486.176056,589.806335 483.905670,589.685303 481.319641,589.321960 
	C483.242218,589.209717 485.480377,589.339783 488.082520,589.698669 
z"/>
<path fill="#CBE5E8" opacity="1.000000" stroke="none" 
	d="
M369.843323,455.712921 
	C369.282074,455.317261 368.684998,454.613434 368.113770,453.626434 
	C368.695587,454.030457 369.251556,454.717590 369.843323,455.712921 
z"/>
<path fill="#CBE5E8" opacity="1.000000" stroke="none" 
	d="
M375.016357,463.734436 
	C374.309204,463.287720 373.656036,462.486603 372.953522,461.351013 
	C373.626221,461.804382 374.348297,462.592194 375.016357,463.734436 
z"/>
<path fill="#C1D9DB" opacity="1.000000" stroke="none" 
	d="
M240.292328,471.034485 
	C240.739456,470.361328 241.546860,469.719849 242.676025,468.997650 
	C242.216064,469.633331 241.434326,470.349731 240.292328,471.034485 
z"/>
<path fill="#CBE5E8" opacity="1.000000" stroke="none" 
	d="
M225.335419,482.037231 
	C225.180145,481.233002 225.336411,480.345428 225.743774,479.230652 
	C225.994873,479.003448 226.037964,479.025269 226.166168,479.270752 
	C226.580200,479.701355 226.865997,479.886475 227.151794,480.071564 
	C226.650192,480.699005 226.148590,481.326447 225.335419,482.037231 
z"/>
<path fill="#CBE5E8" opacity="1.000000" stroke="none" 
	d="
M377.023346,466.729187 
	C376.310181,466.279236 375.664856,465.477966 374.963135,464.345276 
	C375.634888,464.801880 376.363037,465.589874 377.023346,466.729187 
z"/>
<path fill="#CBE5E8" opacity="1.000000" stroke="none" 
	d="
M373.008453,460.734680 
	C372.302155,460.292328 371.644043,459.493347 370.949249,458.358795 
	C371.627258,458.808167 372.341949,459.593109 373.008453,460.734680 
z"/>
<path fill="#BADEE2" opacity="1.000000" stroke="none" 
	d="
M260.278107,207.777466 
	C260.193024,206.813889 260.365997,205.585205 260.803894,204.079529 
	C260.891266,205.039139 260.713715,206.275757 260.278107,207.777466 
z"/>
<path fill="#BADEE2" opacity="1.000000" stroke="none" 
	d="
M262.314667,197.981583 
	C262.227814,197.301208 262.386749,196.369980 262.836060,195.229431 
	C262.937775,195.923645 262.749115,196.827179 262.314667,197.981583 
z"/>
<path fill="#BADEE2" opacity="1.000000" stroke="none" 
	d="
M261.343292,202.123657 
	C261.227325,201.421631 261.361359,200.438889 261.765503,199.197205 
	C261.888184,199.906494 261.740753,200.874725 261.343292,202.123657 
z"/>
<path fill="#CBE5E8" opacity="1.000000" stroke="none" 
	d="
M370.969360,457.798035 
	C370.660095,457.846069 370.348541,457.608246 370.089294,457.058411 
	C370.416748,457.001617 370.691956,457.256927 370.969360,457.798035 
z"/>
<path fill="#CBE5E8" opacity="1.000000" stroke="none" 
	d="
M491.096619,589.794983 
	C491.007507,589.935181 490.725586,589.937378 490.017151,589.929688 
	C490.028320,589.832153 490.466034,589.744568 491.096619,589.794983 
z"/>
<path fill="#C1D9DB" opacity="1.000000" stroke="none" 
	d="
M227.200531,479.844360 
	C226.865997,479.886475 226.580200,479.701355 226.186768,479.283447 
	C226.304001,479.047424 226.528885,479.044189 227.087402,479.113129 
	C227.421051,479.185272 227.249237,479.617126 227.200531,479.844360 
z"/>
<path fill="#CBE5E8" opacity="1.000000" stroke="none" 
	d="
M215.991196,488.984100 
	C215.979553,488.969116 215.760635,489.379730 215.760635,489.379730 
	C215.760635,489.379730 215.795303,489.090515 215.913940,489.056671 
	C216.032562,489.022827 216.002838,488.999084 215.991196,488.984100 
z"/>
</svg>