<svg width="150" height="150" viewBox="0 0 150 150" fill="none" xmlns="http://www.w3.org/2000/svg">
<circle cx="74.9999" cy="75" r="75" transform="rotate(90 74.9999 75)" fill="black"/>
<mask id="path-2-inside-1_90_28" fill="white">
<path d="M74.9999 150C65.1507 150 55.398 148.06 46.2986 144.291C37.1992 140.522 28.9313 134.997 21.9669 128.033C15.0025 121.069 9.47802 112.801 5.70892 103.701C1.93982 94.6019 -0.00011356 84.8492 -0.00011313 75C-0.000112699 65.1509 1.93982 55.3982 5.70892 46.2988C9.47803 37.1993 15.0025 28.9314 21.9669 21.967C28.9313 15.0026 37.1992 9.47817 46.2986 5.70906C55.3981 1.93996 65.1507 2.96565e-05 74.9999 3.05176e-05L74.9999 75V150Z"/>
</mask>
<path d="M74.9999 150C65.1507 150 55.398 148.06 46.2986 144.291C37.1992 140.522 28.9313 134.997 21.9669 128.033C15.0025 121.069 9.47802 112.801 5.70892 103.701C1.93982 94.6019 -0.00011356 84.8492 -0.00011313 75C-0.000112699 65.1509 1.93982 55.3982 5.70892 46.2988C9.47803 37.1993 15.0025 28.9314 21.9669 21.967C28.9313 15.0026 37.1992 9.47817 46.2986 5.70906C55.3981 1.93996 65.1507 2.96565e-05 74.9999 3.05176e-05L74.9999 75V150Z" fill="white" stroke="black" stroke-width="6" mask="url(#path-2-inside-1_90_28)"/>
</svg>
