<svg version="1.1" id="Layer_1" xmlns="http://www.w3.org/2000/svg" xmlns:xlink="http://www.w3.org/1999/xlink" x="0px" y="0px"
	 width="100%" viewBox="0 0 1000 1000" enable-background="new 0 0 1000 1000" xml:space="preserve">
<path fill="#FEFFFF" opacity="1.000000" stroke="none" 
	d="
M1.000001,485.000000 
	C1.000000,323.689484 1.000000,162.378952 1.000000,1.034214 
	C334.263397,1.034214 667.526794,1.034214 1000.895081,1.034214 
	C1000.895081,334.216248 1000.895081,667.432495 1000.895081,1001.000000 
	C848.305481,1001.000000 695.610657,1001.000000 542.631653,1000.629456 
	C560.558472,997.505615 578.852844,995.207397 596.961609,991.894836 
	C625.684753,986.640686 654.010376,979.432678 680.819397,967.772461 
	C705.094055,957.214600 729.119751,945.903870 752.473022,933.457581 
	C777.008057,920.381531 799.227295,903.597961 820.435608,885.592102 
	C823.522522,882.971252 826.264709,879.944519 829.130127,877.073853 
	C829.093750,877.042114 829.027344,877.112244 829.336792,877.281738 
	C830.110840,876.952576 830.575439,876.453918 831.375488,875.906555 
	C837.540955,871.016968 843.850342,866.641479 849.098145,861.235352 
	C859.118713,850.912537 868.888306,840.298279 878.112915,829.262329 
	C890.062256,814.966675 901.606750,800.314331 912.844238,785.451599 
	C916.961731,780.005798 919.703796,773.520081 923.376221,767.306946 
	C924.305908,766.067322 924.932617,765.029480 925.790527,763.887939 
	C926.288940,763.195190 926.556091,762.606140 926.914917,761.765991 
	C927.026672,761.337769 927.046692,761.160706 927.031738,760.990112 
	C926.996643,760.996460 927.007996,761.066895 927.328369,760.928040 
	C929.108276,758.399658 930.687195,756.074097 932.009399,753.610840 
	C949.036438,721.889221 964.866211,689.686829 975.699524,655.155334 
	C982.210938,634.400208 987.033936,613.309875 991.238464,592.042480 
	C993.104126,582.606140 994.759644,573.059570 995.507202,563.484680 
	C997.278931,540.794312 999.183350,518.070984 999.612793,495.334137 
	C999.910034,479.597595 997.837830,463.816345 996.916565,447.627197 
	C995.027344,434.008698 993.258301,420.781891 991.020813,407.634827 
	C986.164062,379.096497 978.302124,351.347931 967.857239,324.373932 
	C964.488647,315.674500 959.984619,307.414734 955.987915,298.583618 
	C953.616394,293.110504 951.375671,287.948730 948.877869,282.914520 
	C934.466858,253.870926 918.983154,225.461441 898.358765,200.228333 
	C889.432373,189.307190 880.161377,178.667694 871.055420,167.549072 
	C866.863281,162.117691 863.103210,156.577499 858.374573,152.048706 
	C846.910828,141.069412 835.168030,130.363220 823.186523,119.951088 
	C817.661987,115.150200 811.314941,111.295746 805.152771,106.707565 
	C795.080078,99.118462 785.563721,91.259544 775.248230,84.647339 
	C726.586792,53.455559 674.755920,29.236763 618.079773,16.752464 
	C594.135437,11.478151 569.875305,6.977706 545.517578,4.439792 
	C524.426636,2.242259 502.996063,3.200727 481.713379,2.975663 
	C459.848175,2.744439 438.202576,5.696458 416.849091,9.746279 
	C394.759949,13.935619 373.021515,19.974030 350.740326,25.130451 
	C348.820099,25.614912 347.320038,26.285334 345.753754,26.713341 
	C318.973755,34.031311 294.076233,45.821590 269.665375,58.754185 
	C266.678375,60.336662 263.882019,62.278988 260.652008,64.117950 
	C244.519211,73.651253 227.816559,81.892738 213.127197,92.836548 
	C178.271576,118.804535 144.962570,146.690353 117.491074,181.194214 
	C114.781700,184.234604 112.437706,187.211060 109.960625,190.072311 
	C95.846916,206.374893 83.496513,223.986603 73.005951,242.751389 
	C63.001144,260.647247 53.962952,279.094910 44.863735,297.480103 
	C41.143269,304.997375 38.379463,312.988098 35.084858,321.134033 
	C28.505396,342.490417 21.267399,363.279388 15.726685,384.511353 
	C8.649890,411.629547 4.471454,439.339813 2.641051,467.359985 
	C2.256253,473.250580 1.555284,479.120544 1.000001,485.000000 
z"/>
<path fill="#FEFFFF" opacity="1.000000" stroke="none" 
	d="
M453.000000,1001.000000 
	C302.402466,1001.000000 151.804916,1001.000000 1.000000,1001.000000 
	C1.000000,840.975952 1.000000,680.951843 1.377030,520.677490 
	C3.804719,540.417847 5.338385,560.478455 8.032041,580.382080 
	C11.705584,607.526123 18.088011,634.111450 27.046148,660.414734 
	C28.187592,665.180542 28.840277,669.781616 30.603971,673.907837 
	C37.101288,689.108093 43.823143,704.217163 50.729084,719.237000 
	C59.740093,738.835205 69.965981,757.790649 81.953941,775.749084 
	C85.425758,780.950012 89.220634,785.935181 92.954048,791.353271 
	C95.002403,794.164001 96.956482,796.646851 98.926987,799.116577 
	C119.567368,824.986694 140.169449,850.799072 165.427750,872.594910 
	C192.303604,895.786560 219.870636,917.955200 251.089584,935.016541 
	C284.147980,953.083008 318.112091,969.171143 354.454742,979.834595 
	C378.847137,986.991577 403.552338,992.431763 428.688049,996.128723 
	C436.854218,997.329712 444.899445,999.352844 453.000000,1001.000000 
z"/>
<path fill="#016267" opacity="1.000000" stroke="none" 
	d="
M453.468658,1001.000000 
	C444.899445,999.352844 436.854218,997.329712 428.688049,996.128723 
	C403.552338,992.431763 378.847137,986.991577 354.454742,979.834595 
	C318.112091,969.171143 284.147980,953.083008 251.089584,935.016541 
	C219.870636,917.955200 192.303604,895.786560 165.427750,872.594910 
	C140.169449,850.799072 119.567368,824.986694 98.926987,799.116577 
	C96.956482,796.646851 95.002403,794.164001 93.328400,791.302429 
	C95.263680,791.686829 96.930931,792.416687 98.555939,793.230957 
	C137.780045,812.885193 176.811646,832.935059 216.264191,852.119324 
	C275.180908,880.768188 335.490356,905.978271 398.912964,923.109497 
	C434.116638,932.618469 469.863037,939.148926 506.300751,940.768982 
	C538.904724,942.218628 571.555542,941.529114 603.817139,936.003723 
	C631.094421,931.332092 658.391113,926.485535 685.339966,920.250183 
	C730.004517,909.915710 773.424438,895.201477 816.837952,880.577087 
	C820.878723,879.215881 825.053772,878.253235 829.166443,877.105591 
	C826.264709,879.944519 823.522522,882.971252 820.435608,885.592102 
	C799.227295,903.597961 777.008057,920.381531 752.473022,933.457581 
	C729.119751,945.903870 705.094055,957.214600 680.819397,967.772461 
	C654.010376,979.432678 625.684753,986.640686 596.961609,991.894836 
	C578.852844,995.207397 560.558472,997.505615 542.173706,1000.629456 
	C512.645752,1001.000000 483.291534,1001.000000 453.468658,1001.000000 
z"/>
<path fill="#026267" opacity="1.000000" stroke="none" 
	d="
M27.067327,660.032043 
	C18.088011,634.111450 11.705584,607.526123 8.032041,580.382080 
	C5.338385,560.478455 3.804719,540.417847 1.377030,520.213623 
	C1.000000,508.645782 1.000000,497.291534 1.000001,485.468658 
	C1.555284,479.120544 2.256253,473.250580 2.641051,467.359985 
	C4.471454,439.339813 8.649890,411.629547 15.726685,384.511353 
	C21.267399,363.279388 28.505396,342.490417 35.399704,321.384705 
	C36.116646,322.717438 36.641281,324.161713 36.697491,325.624023 
	C37.829121,355.062317 38.836830,384.505524 40.025852,413.941437 
	C40.596455,428.067596 41.289280,442.194885 42.284561,456.296387 
	C43.676800,476.022278 45.238609,495.739685 47.043331,515.431763 
	C48.299347,529.136658 50.150417,542.786072 51.605011,556.474121 
	C52.263069,562.666565 53.750458,569.074341 52.802982,575.058472 
	C51.570370,582.843567 48.226162,590.285095 45.902237,597.908447 
	C39.592514,618.606750 33.341576,639.322937 27.067327,660.032043 
z"/>
<path fill="#55D3DE" opacity="1.000000" stroke="none" 
	d="
M27.046152,660.414734 
	C33.341576,639.322937 39.592514,618.606750 45.902237,597.908447 
	C48.226162,590.285095 51.570370,582.843567 52.802982,575.058472 
	C53.750458,569.074341 52.263069,562.666565 51.605011,556.474121 
	C50.150417,542.786072 48.299347,529.136658 47.043331,515.431763 
	C45.238609,495.739685 43.676800,476.022278 42.284561,456.296387 
	C41.289280,442.194885 40.596455,428.067596 40.025852,413.941437 
	C38.836830,384.505524 37.829121,355.062317 36.697491,325.624023 
	C36.641281,324.161713 36.116646,322.717438 35.495277,321.014099 
	C38.379463,312.988098 41.143269,304.997375 44.863735,297.480103 
	C53.962952,279.094910 63.001144,260.647247 73.005951,242.751389 
	C83.496513,223.986603 95.846916,206.374893 109.960625,190.072311 
	C112.437706,187.211060 114.781700,184.234604 117.579895,181.538071 
	C119.646805,182.736984 121.301842,183.744019 122.997971,184.676300 
	C168.892075,209.902313 214.446564,235.773590 260.777252,260.170776 
	C315.529999,289.002960 372.256805,313.393219 431.806732,330.774811 
	C477.458435,344.099701 524.045349,351.933136 571.552734,353.744446 
	C608.686279,355.160217 645.821411,353.957306 682.725342,349.670959 
	C713.204285,346.130798 743.747009,342.358398 773.853760,336.568848 
	C825.153625,326.703827 876.126465,315.141296 927.254272,304.375671 
	C936.793823,302.366974 946.415955,300.751068 956.000000,298.953857 
	C959.984619,307.414734 964.488647,315.674500 967.857239,324.373932 
	C978.302124,351.347931 986.164062,379.096497 991.020813,407.634827 
	C993.258301,420.781891 995.027344,434.008698 996.563477,447.722961 
	C995.356934,451.052643 994.836853,453.951752 993.795715,456.649811 
	C986.567078,475.383209 979.548340,494.206635 971.866333,512.754333 
	C951.866760,561.041443 931.544922,609.194946 911.432861,657.435669 
	C910.576111,659.490601 909.853271,662.000671 910.215027,664.101196 
	C913.194397,681.402893 916.556335,698.638428 919.580383,715.932800 
	C922.206421,730.951233 924.543335,746.020264 927.008057,761.066895 
	C927.007996,761.066895 926.996643,760.996460 926.847961,761.051880 
	C926.608704,761.199158 926.424194,761.331482 926.443359,761.375916 
	C926.540955,761.602234 926.691345,761.805664 926.823242,762.017151 
	C926.556091,762.606140 926.288940,763.195190 925.329956,763.882568 
	C919.791687,765.240967 917.476624,762.988831 916.704163,758.390015 
	C915.167908,749.244263 913.568726,740.109009 911.980530,730.972046 
	C908.904663,713.277039 905.818420,695.583862 902.528137,676.693726 
	C879.528687,721.535950 858.100830,766.021423 819.235168,800.389343 
	C821.422424,799.765198 822.195557,799.580139 822.945129,799.325623 
	C853.251709,789.032166 883.538513,778.679810 913.889709,768.520020 
	C916.743896,767.564575 920.002441,767.817078 923.073242,767.508789 
	C919.703796,773.520081 916.961731,780.005798 912.844238,785.451599 
	C901.606750,800.314331 890.062256,814.966675 878.112915,829.262329 
	C868.888306,840.298279 859.118713,850.912537 849.098145,861.235352 
	C843.850342,866.641479 837.540955,871.016968 831.044189,875.962158 
	C829.927429,876.415039 829.477356,876.763672 829.027344,877.112244 
	C829.027344,877.112244 829.093750,877.042114 829.130127,877.073853 
	C825.053772,878.253235 820.878723,879.215881 816.837952,880.577087 
	C773.424438,895.201477 730.004517,909.915710 685.339966,920.250183 
	C658.391113,926.485535 631.094421,931.332092 603.817139,936.003723 
	C571.555542,941.529114 538.904724,942.218628 506.300751,940.768982 
	C469.863037,939.148926 434.116638,932.618469 398.912964,923.109497 
	C335.490356,905.978271 275.180908,880.768188 216.264191,852.119324 
	C176.811646,832.935059 137.780045,812.885193 98.555939,793.230957 
	C96.930931,792.416687 95.263680,791.686829 93.241753,790.968506 
	C89.220634,785.935181 85.425758,780.950012 81.953941,775.749084 
	C69.965981,757.790649 59.740093,738.835205 50.729084,719.237000 
	C43.823143,704.217163 37.101288,689.108093 30.603971,673.907837 
	C28.840277,669.781616 28.187592,665.180542 27.046152,660.414734 
M94.973976,693.424927 
	C95.216187,693.431885 95.458397,693.438843 95.700600,693.445801 
	C95.460815,693.302429 95.221031,693.159058 94.815498,692.354187 
	C72.502190,664.002319 65.269836,629.801697 57.396080,594.729309 
	C50.221729,617.970093 43.364128,640.184753 36.525581,662.337708 
	C48.500950,668.782593 60.443451,675.309937 72.483376,681.652405 
	C79.921928,685.570923 87.508835,689.207825 94.973976,693.424927 
M202.087921,401.607330 
	C201.847565,401.562317 201.607208,401.517303 201.366852,401.472290 
	C201.585571,401.642609 201.804276,401.812958 202.258957,402.610931 
	C218.603897,421.274200 230.908508,442.605713 241.624084,464.735443 
	C257.909241,498.367401 273.262451,532.451477 288.926758,566.382690 
	C294.058990,577.499939 298.927551,588.738953 304.050812,600.222839 
	C305.759033,599.005737 307.000061,598.187744 308.169922,597.278198 
	C338.522339,573.679199 369.278290,550.646973 402.909790,531.814575 
	C426.328827,518.700745 450.548187,507.545715 477.407074,503.374481 
	C479.492584,503.050629 481.570770,502.679321 483.652344,502.330078 
	C478.814056,500.508911 474.071045,499.841980 469.389008,498.878662 
	C423.978333,489.535522 379.619049,476.543091 336.255981,460.171570 
	C291.905151,443.427124 248.694031,424.066925 206.168228,403.147583 
	C204.890518,402.519073 203.362122,402.400177 202.087921,401.607330 
M557.147705,791.650635 
	C595.645569,754.084900 626.293213,710.294128 656.470581,666.146484 
	C657.286316,664.953064 657.203552,662.237854 656.389465,660.972412 
	C641.178528,637.329712 626.359985,613.403809 610.279724,590.360352 
	C595.183044,568.726379 577.502686,549.221619 556.098694,533.405457 
	C529.007629,513.386780 499.392456,507.164337 466.544159,515.807678 
	C441.008423,522.526917 417.815125,534.204041 395.461853,547.767273 
	C366.536743,565.318115 339.527954,585.604614 312.774078,606.257874 
	C309.012115,609.162048 308.840790,611.375183 310.685638,615.238342 
	C317.272095,629.030579 323.389313,643.048096 330.045807,656.805359 
	C345.763367,689.289612 361.931274,721.539490 381.370209,752.026245 
	C396.369598,775.550415 412.589203,798.061646 434.396606,815.908752 
	C458.211609,835.398804 483.848694,839.495667 511.849274,825.200134 
	C528.640198,816.627625 543.050049,804.976379 557.147705,791.650635 
M240.172073,484.327057 
	C231.707993,468.497803 223.675858,452.416962 214.647888,436.916138 
	C206.949539,423.698303 198.284134,410.976318 185.933395,401.430176 
	C172.821426,391.295746 158.742157,391.170105 146.664001,401.116821 
	C143.078308,404.069824 139.700455,407.349854 136.618011,410.826355 
	C122.870224,426.331696 113.693245,444.660492 105.140045,463.265137 
	C89.151611,498.042633 76.958595,534.268066 65.032944,570.578186 
	C64.534813,572.094849 64.139404,573.882202 64.447128,575.390198 
	C67.893730,592.280151 70.907486,609.288879 75.189018,625.970215 
	C80.573692,646.949341 87.826973,667.340271 101.687943,684.523987 
	C113.310265,698.932434 128.034576,705.603455 146.918457,702.204712 
	C160.929184,699.683105 173.448639,693.719788 185.598114,686.842529 
	C211.454346,672.206665 234.983780,654.195374 258.359344,635.983887 
	C270.814789,626.280090 283.290161,616.601807 296.296448,606.492310 
	C277.639526,565.846619 259.081451,525.416321 240.172073,484.327057 
M897.500427,651.032776 
	C897.000671,648.600098 896.507446,646.166016 896.000183,643.734863 
	C888.984924,610.115112 881.433777,576.636169 869.251099,544.412170 
	C863.350037,528.803528 856.473022,513.658386 845.184387,501.092682 
	C839.080505,494.298279 831.881653,489.151337 822.082092,488.813080 
	C812.534729,488.483490 804.521667,492.356873 797.120789,497.590546 
	C781.176758,508.865784 768.293823,523.392517 757.128723,539.114807 
	C728.428711,579.529236 700.485291,620.480591 672.154602,661.158203 
	C670.219849,663.935974 671.073547,665.897278 672.555420,668.361694 
	C685.827759,690.434387 698.722351,712.739685 712.297852,734.623047 
	C724.232300,753.860962 736.968262,772.567078 753.627502,788.241272 
	C771.999207,805.526733 789.953918,807.508484 809.867249,793.982910 
	C821.421204,786.135132 830.634521,775.862122 839.106873,764.897278 
	C861.845581,735.469177 878.388855,702.426758 894.894287,669.349426 
	C897.718140,663.690308 899.925964,658.200562 897.500427,651.032776 
M323.764923,666.702332 
	C315.943878,650.091125 308.122833,633.479919 300.152222,616.551025 
	C298.751404,617.483887 297.782684,618.065125 296.882355,618.737854 
	C267.831970,640.445496 239.310562,662.911499 209.574402,683.634521 
	C186.743057,699.545593 162.628265,713.897766 132.109482,713.242126 
	C133.951004,714.305359 134.885925,714.923035 135.884430,715.410400 
	C177.861465,735.901611 219.511261,757.101990 261.908875,776.683167 
	C317.173523,802.206726 374.249878,822.949890 433.689636,836.722107 
	C437.410919,837.584351 441.162933,838.317749 444.910461,839.061707 
	C448.625610,839.799133 452.353210,840.473938 456.075348,841.176270 
	C443.263763,835.163269 431.849365,827.567322 421.592499,818.181152 
	C400.768463,799.124756 383.925537,776.788696 370.014465,752.453918 
	C354.024017,724.481750 339.304230,695.783203 323.764923,666.702332 
M656.158569,684.636292 
	C647.561157,696.708374 639.147095,708.916138 630.331116,720.826416 
	C606.328674,753.253418 581.422546,784.920898 550.436646,811.163574 
	C535.247864,824.027344 518.934326,835.105347 499.516937,840.704102 
	C495.712585,841.800964 491.764648,842.463867 487.843536,843.073547 
	C483.981018,843.674072 480.068512,843.953003 476.177917,844.372986 
	C506.197052,849.108276 536.312988,850.932678 566.651367,850.307251 
	C597.141602,849.678711 627.481812,847.182434 657.373962,841.595825 
	C688.974121,835.689941 720.247375,828.004028 751.596619,820.804688 
	C760.837646,818.682495 769.851868,815.572510 778.970032,812.915283 
	C777.116699,812.138855 775.417542,812.140137 773.820801,811.736450 
	C771.895935,811.249695 770.024963,810.497681 768.187561,809.725159 
	C750.976135,802.489258 739.094177,788.975037 727.976990,774.821411 
	C707.670593,748.968811 691.574951,720.364075 674.928467,692.135132 
	C671.354187,686.073975 667.769348,680.018982 663.894592,673.462341 
	C661.097900,677.493103 658.827942,680.764771 656.158569,684.636292 
M736.668945,501.106323 
	C669.039612,510.567657 601.200867,514.271667 532.943359,508.337372 
	C533.414490,509.047272 533.913757,509.443726 534.480408,509.674133 
	C550.581177,516.219727 564.494690,526.134033 577.243896,537.743652 
	C605.716125,563.670837 627.223328,595.112366 647.727051,627.319641 
	C653.332581,636.124756 658.707581,645.076538 664.535400,654.523621 
	C666.547119,651.575989 668.221069,649.128601 669.889709,646.677551 
	C689.557739,617.787537 709.014954,588.750977 728.960632,560.053894 
	C744.170959,538.169739 760.198242,516.880310 779.835388,498.623474 
	C781.279846,497.280579 782.708008,495.920166 784.650146,494.090881 
	C768.361755,496.492554 752.961670,498.763275 736.668945,501.106323 
M843.930237,486.491882 
	C855.844238,495.181580 863.268250,507.374207 869.663757,520.207520 
	C881.955872,544.873291 889.373718,571.249390 895.961060,597.860413 
	C899.669434,612.841187 902.914795,627.936584 906.368713,642.980347 
	C906.907471,643.142334 907.446228,643.304321 907.984985,643.466248 
	C933.760803,579.902649 959.536560,516.338989 985.782227,451.616638 
	C936.370972,462.623016 888.792175,473.221191 840.706604,483.932251 
	C841.864624,484.843842 842.618103,485.436981 843.930237,486.491882 
M73.011459,516.459473 
	C79.094971,500.822357 84.757690,485.004883 91.363754,469.591736 
	C100.548332,448.162537 110.637589,427.119476 125.256546,408.705566 
	C135.737030,395.504456 147.679199,384.351593 166.559448,383.573669 
	C126.084694,361.904999 86.298752,340.605072 46.259590,319.169617 
	C49.274437,396.092377 51.427902,472.498383 61.570248,548.511536 
	C65.309395,538.077271 69.048538,527.643005 73.011459,516.459473 
z"/>
<path fill="#006167" opacity="1.000000" stroke="none" 
	d="
M955.987915,298.583618 
	C946.415955,300.751068 936.793823,302.366974 927.254272,304.375671 
	C876.126465,315.141296 825.153625,326.703827 773.853760,336.568848 
	C743.747009,342.358398 713.204285,346.130798 682.725342,349.670959 
	C645.821411,353.957306 608.686279,355.160217 571.552734,353.744446 
	C524.045349,351.933136 477.458435,344.099701 431.806732,330.774811 
	C372.256805,313.393219 315.529999,289.002960 260.777252,260.170776 
	C214.446564,235.773590 168.892075,209.902313 122.997971,184.676300 
	C121.301842,183.744019 119.646805,182.736984 117.883797,181.420929 
	C144.962570,146.690353 178.271576,118.804535 213.127197,92.836548 
	C227.816559,81.892738 244.519211,73.651253 260.636169,64.478333 
	C263.893982,67.824043 266.398987,71.494652 269.818268,73.822075 
	C294.723541,90.774391 319.557129,107.854233 344.899017,124.137985 
	C392.047852,154.434052 441.215515,180.625336 495.429535,196.343567 
	C525.095093,204.944489 555.334290,209.785736 586.114197,210.902740 
	C614.412048,211.929703 642.739014,211.582001 670.894043,208.047501 
	C696.399902,204.845581 721.959900,201.857254 747.298645,197.600250 
	C776.233215,192.739151 804.975952,186.710312 833.747498,180.917984 
	C844.769653,178.699005 855.690063,175.909988 866.533386,172.931137 
	C868.360657,172.429138 869.558350,169.635193 871.046875,167.900238 
	C880.161377,178.667694 889.432373,189.307190 898.358765,200.228333 
	C918.983154,225.461441 934.466858,253.870926 948.877869,282.914520 
	C951.375671,287.948730 953.616394,293.110504 955.987915,298.583618 
z"/>
<path fill="#55D3DF" opacity="1.000000" stroke="none" 
	d="
M871.055420,167.549042 
	C869.558350,169.635193 868.360657,172.429138 866.533386,172.931137 
	C855.690063,175.909988 844.769653,178.699005 833.747498,180.917984 
	C804.975952,186.710312 776.233215,192.739151 747.298645,197.600250 
	C721.959900,201.857254 696.399902,204.845581 670.894043,208.047501 
	C642.739014,211.582001 614.412048,211.929703 586.114197,210.902740 
	C555.334290,209.785736 525.095093,204.944489 495.429535,196.343567 
	C441.215515,180.625336 392.047852,154.434052 344.899017,124.137985 
	C319.557129,107.854233 294.723541,90.774391 269.818268,73.822075 
	C266.398987,71.494652 263.893982,67.824043 260.981506,64.414925 
	C263.882019,62.278988 266.678375,60.336662 269.665375,58.754185 
	C294.076233,45.821590 318.973755,34.031311 345.753754,26.713341 
	C347.320038,26.285334 348.820099,25.614912 350.926086,25.394604 
	C368.473633,35.239834 385.327301,44.967766 402.443726,54.209023 
	C436.136322,72.399803 470.808868,88.323273 507.477325,99.757706 
	C545.231628,111.530731 583.989197,116.757545 623.314575,117.720390 
	C646.609436,118.290741 669.948914,117.373657 693.260132,116.796440 
	C704.060730,116.529007 714.852722,115.612106 725.629456,114.749596 
	C744.349731,113.251320 763.063416,111.654770 781.763000,109.918373 
	C789.644287,109.186539 797.482910,107.994820 805.340881,107.012161 
	C811.314941,111.295746 817.661987,115.150200 823.186523,119.951088 
	C835.168030,130.363220 846.910828,141.069412 858.374573,152.048706 
	C863.103210,156.577499 866.863281,162.117691 871.055420,167.549042 
z"/>
<path fill="#016167" opacity="1.000000" stroke="none" 
	d="
M805.152771,106.707565 
	C797.482910,107.994820 789.644287,109.186539 781.763000,109.918373 
	C763.063416,111.654770 744.349731,113.251320 725.629456,114.749596 
	C714.852722,115.612106 704.060730,116.529007 693.260132,116.796440 
	C669.948914,117.373657 646.609436,118.290741 623.314575,117.720390 
	C583.989197,116.757545 545.231628,111.530731 507.477325,99.757706 
	C470.808868,88.323273 436.136322,72.399803 402.443726,54.209023 
	C385.327301,44.967766 368.473633,35.239834 351.315430,25.467758 
	C373.021515,19.974030 394.759949,13.935619 416.849091,9.746279 
	C438.202576,5.696458 459.848175,2.744439 481.713379,2.975663 
	C502.996063,3.200727 524.426636,2.242259 545.517578,4.439792 
	C569.875305,6.977706 594.135437,11.478151 618.079773,16.752464 
	C674.755920,29.236763 726.586792,53.455559 775.248230,84.647339 
	C785.563721,91.259544 795.080078,99.118462 805.152771,106.707565 
z"/>
<path fill="#026267" opacity="1.000000" stroke="none" 
	d="
M927.328369,760.928040 
	C924.543335,746.020264 922.206421,730.951233 919.580383,715.932800 
	C916.556335,698.638428 913.194397,681.402893 910.215027,664.101196 
	C909.853271,662.000671 910.576111,659.490601 911.432861,657.435669 
	C931.544922,609.194946 951.866760,561.041443 971.866333,512.754333 
	C979.548340,494.206635 986.567078,475.383209 993.795715,456.649811 
	C994.836853,453.951752 995.356934,451.052643 996.471252,448.150818 
	C997.837830,463.816345 999.910034,479.597595 999.612793,495.334137 
	C999.183350,518.070984 997.278931,540.794312 995.507202,563.484680 
	C994.759644,573.059570 993.104126,582.606140 991.238464,592.042480 
	C987.033936,613.309875 982.210938,634.400208 975.699524,655.155334 
	C964.866211,689.686829 949.036438,721.889221 932.009399,753.610840 
	C930.687195,756.074097 929.108276,758.399658 927.328369,760.928040 
z"/>
<path fill="#016368" opacity="1.000000" stroke="none" 
	d="
M923.376221,767.307007 
	C920.002441,767.817078 916.743896,767.564575 913.889709,768.520020 
	C883.538513,778.679810 853.251709,789.032166 822.945129,799.325623 
	C822.195557,799.580139 821.422424,799.765198 819.235168,800.389343 
	C858.100830,766.021423 879.528687,721.535950 902.528137,676.693726 
	C905.818420,695.583862 908.904663,713.277039 911.980530,730.972046 
	C913.568726,740.109009 915.167908,749.244263 916.704163,758.390015 
	C917.476624,762.988831 919.791687,765.240967 925.098755,763.986267 
	C924.932617,765.029480 924.305908,766.067322 923.376221,767.307007 
z"/>
<path fill="#016267" opacity="1.000000" stroke="none" 
	d="
M829.336792,877.281738 
	C829.477356,876.763672 829.927429,876.415039 830.708740,876.010864 
	C830.575439,876.453918 830.110840,876.952576 829.336792,877.281738 
z"/>
<path fill="#026267" opacity="1.000000" stroke="none" 
	d="
M926.914917,761.765991 
	C926.691345,761.805664 926.540955,761.602234 926.443359,761.375916 
	C926.424194,761.331482 926.608704,761.199158 926.883057,761.045532 
	C927.046692,761.160706 927.026672,761.337769 926.914917,761.765991 
z"/>
<path fill="#006167" opacity="1.000000" stroke="none" 
	d="
M556.896606,791.899902 
	C543.050049,804.976379 528.640198,816.627625 511.849274,825.200134 
	C483.848694,839.495667 458.211609,835.398804 434.396606,815.908752 
	C412.589203,798.061646 396.369598,775.550415 381.370209,752.026245 
	C361.931274,721.539490 345.763367,689.289612 330.045807,656.805359 
	C323.389313,643.048096 317.272095,629.030579 310.685638,615.238342 
	C308.840790,611.375183 309.012115,609.162048 312.774078,606.257874 
	C339.527954,585.604614 366.536743,565.318115 395.461853,547.767273 
	C417.815125,534.204041 441.008423,522.526917 466.544159,515.807678 
	C499.392456,507.164337 529.007629,513.386780 556.098694,533.405457 
	C577.502686,549.221619 595.183044,568.726379 610.279724,590.360352 
	C626.359985,613.403809 641.178528,637.329712 656.389465,660.972412 
	C657.203552,662.237854 657.286316,664.953064 656.470581,666.146484 
	C626.293213,710.294128 595.645569,754.084900 556.896606,791.899902 
z"/>
<path fill="#006167" opacity="1.000000" stroke="none" 
	d="
M240.347717,484.656525 
	C259.081451,525.416321 277.639526,565.846619 296.296448,606.492310 
	C283.290161,616.601807 270.814789,626.280090 258.359344,635.983887 
	C234.983780,654.195374 211.454346,672.206665 185.598114,686.842529 
	C173.448639,693.719788 160.929184,699.683105 146.918457,702.204712 
	C128.034576,705.603455 113.310265,698.932434 101.687943,684.523987 
	C87.826973,667.340271 80.573692,646.949341 75.189018,625.970215 
	C70.907486,609.288879 67.893730,592.280151 64.447128,575.390198 
	C64.139404,573.882202 64.534813,572.094849 65.032944,570.578186 
	C76.958595,534.268066 89.151611,498.042633 105.140045,463.265137 
	C113.693245,444.660492 122.870224,426.331696 136.618011,410.826355 
	C139.700455,407.349854 143.078308,404.069824 146.664001,401.116821 
	C158.742157,391.170105 172.821426,391.295746 185.933395,401.430176 
	C198.284134,410.976318 206.949539,423.698303 214.647888,436.916138 
	C223.675858,452.416962 231.707993,468.497803 240.347717,484.656525 
z"/>
<path fill="#006167" opacity="1.000000" stroke="none" 
	d="
M897.627563,651.442444 
	C899.925964,658.200562 897.718140,663.690308 894.894287,669.349426 
	C878.388855,702.426758 861.845581,735.469177 839.106873,764.897278 
	C830.634521,775.862122 821.421204,786.135132 809.867249,793.982910 
	C789.953918,807.508484 771.999207,805.526733 753.627502,788.241272 
	C736.968262,772.567078 724.232300,753.860962 712.297852,734.623047 
	C698.722351,712.739685 685.827759,690.434387 672.555420,668.361694 
	C671.073547,665.897278 670.219849,663.935974 672.154602,661.158203 
	C700.485291,620.480591 728.428711,579.529236 757.128723,539.114807 
	C768.293823,523.392517 781.176758,508.865784 797.120789,497.590546 
	C804.521667,492.356873 812.534729,488.483490 822.082092,488.813080 
	C831.881653,489.151337 839.080505,494.298279 845.184387,501.092682 
	C856.473022,513.658386 863.350037,528.803528 869.251099,544.412170 
	C881.433777,576.636169 888.984924,610.115112 896.000183,643.734863 
	C896.507446,646.166016 897.000671,648.600098 897.627563,651.442444 
z"/>
<path fill="#016268" opacity="1.000000" stroke="none" 
	d="
M323.898743,667.051270 
	C339.304230,695.783203 354.024017,724.481750 370.014465,752.453918 
	C383.925537,776.788696 400.768463,799.124756 421.592499,818.181152 
	C431.849365,827.567322 443.263763,835.163269 456.075348,841.176270 
	C452.353210,840.473938 448.625610,839.799133 444.910461,839.061707 
	C441.162933,838.317749 437.410919,837.584351 433.689636,836.722107 
	C374.249878,822.949890 317.173523,802.206726 261.908875,776.683167 
	C219.511261,757.101990 177.861465,735.901611 135.884430,715.410400 
	C134.885925,714.923035 133.951004,714.305359 132.109482,713.242126 
	C162.628265,713.897766 186.743057,699.545593 209.574402,683.634521 
	C239.310562,662.911499 267.831970,640.445496 296.882355,618.737854 
	C297.782684,618.065125 298.751404,617.483887 300.152222,616.551025 
	C308.122833,633.479919 315.943878,650.091125 323.898743,667.051270 
z"/>
<path fill="#006268" opacity="1.000000" stroke="none" 
	d="
M656.358276,684.336304 
	C658.827942,680.764771 661.097900,677.493103 663.894592,673.462341 
	C667.769348,680.018982 671.354187,686.073975 674.928467,692.135132 
	C691.574951,720.364075 707.670593,748.968811 727.976990,774.821411 
	C739.094177,788.975037 750.976135,802.489258 768.187561,809.725159 
	C770.024963,810.497681 771.895935,811.249695 773.820801,811.736450 
	C775.417542,812.140137 777.116699,812.138855 778.970032,812.915283 
	C769.851868,815.572510 760.837646,818.682495 751.596619,820.804688 
	C720.247375,828.004028 688.974121,835.689941 657.373962,841.595825 
	C627.481812,847.182434 597.141602,849.678711 566.651367,850.307251 
	C536.312988,850.932678 506.197052,849.108276 476.177917,844.372986 
	C480.068512,843.953003 483.981018,843.674072 487.843536,843.073547 
	C491.764648,842.463867 495.712585,841.800964 499.516937,840.704102 
	C518.934326,835.105347 535.247864,824.027344 550.436646,811.163574 
	C581.422546,784.920898 606.328674,753.253418 630.331116,720.826416 
	C639.147095,708.916138 647.561157,696.708374 656.358276,684.336304 
z"/>
<path fill="#016268" opacity="1.000000" stroke="none" 
	d="
M201.950592,402.043701 
	C203.362122,402.400177 204.890518,402.519073 206.168228,403.147583 
	C248.694031,424.066925 291.905151,443.427124 336.255981,460.171570 
	C379.619049,476.543091 423.978333,489.535522 469.389008,498.878662 
	C474.071045,499.841980 478.814056,500.508911 483.652344,502.330078 
	C481.570770,502.679321 479.492584,503.050629 477.407074,503.374481 
	C450.548187,507.545715 426.328827,518.700745 402.909790,531.814575 
	C369.278290,550.646973 338.522339,573.679199 308.169922,597.278198 
	C307.000061,598.187744 305.759033,599.005737 304.050812,600.222839 
	C298.927551,588.738953 294.058990,577.499939 288.926758,566.382690 
	C273.262451,532.451477 257.909241,498.367401 241.624084,464.735443 
	C230.908508,442.605713 218.603897,421.274200 202.122711,402.311951 
	C201.986481,402.013000 201.950592,402.043701 201.950592,402.043701 
z"/>
<path fill="#016268" opacity="1.000000" stroke="none" 
	d="
M737.115234,501.070160 
	C752.961670,498.763275 768.361755,496.492554 784.650146,494.090881 
	C782.708008,495.920166 781.279846,497.280579 779.835388,498.623474 
	C760.198242,516.880310 744.170959,538.169739 728.960632,560.053894 
	C709.014954,588.750977 689.557739,617.787537 669.889709,646.677551 
	C668.221069,649.128601 666.547119,651.575989 664.535400,654.523621 
	C658.707581,645.076538 653.332581,636.124756 647.727051,627.319641 
	C627.223328,595.112366 605.716125,563.670837 577.243896,537.743652 
	C564.494690,526.134033 550.581177,516.219727 534.480408,509.674133 
	C533.913757,509.443726 533.414490,509.047272 532.943359,508.337372 
	C601.200867,514.271667 669.039612,510.567657 737.115234,501.070160 
z"/>
<path fill="#016268" opacity="1.000000" stroke="none" 
	d="
M843.650879,486.260986 
	C842.618103,485.436981 841.864624,484.843842 840.706604,483.932251 
	C888.792175,473.221191 936.370972,462.623016 985.782227,451.616638 
	C959.536560,516.338989 933.760803,579.902649 907.984985,643.466248 
	C907.446228,643.304321 906.907471,643.142334 906.368713,642.980347 
	C902.914795,627.936584 899.669434,612.841187 895.961060,597.860413 
	C889.373718,571.249390 881.955872,544.873291 869.663757,520.207520 
	C863.268250,507.374207 855.844238,495.181580 843.650879,486.260986 
z"/>
<path fill="#016268" opacity="1.000000" stroke="none" 
	d="
M72.899567,516.834106 
	C69.048538,527.643005 65.309395,538.077271 61.570248,548.511536 
	C51.427902,472.498383 49.274437,396.092377 46.259590,319.169617 
	C86.298752,340.605072 126.084694,361.904999 166.559448,383.573669 
	C147.679199,384.351593 135.737030,395.504456 125.256546,408.705566 
	C110.637589,427.119476 100.548332,448.162537 91.363754,469.591736 
	C84.757690,485.004883 79.094971,500.822357 72.899567,516.834106 
z"/>
<path fill="#026369" opacity="1.000000" stroke="none" 
	d="
M95.029144,692.971130 
	C87.508835,689.207825 79.921928,685.570923 72.483376,681.652405 
	C60.443451,675.309937 48.500950,668.782593 36.525581,662.337708 
	C43.364128,640.184753 50.221729,617.970093 57.396080,594.729309 
	C65.269836,629.801697 72.502190,664.002319 94.910492,692.674316 
	C95.005493,692.994446 95.029144,692.971130 95.029144,692.971130 
z"/>
<path fill="#016268" opacity="1.000000" stroke="none" 
	d="
M202.004730,401.998138 
	C201.804276,401.812958 201.585571,401.642609 201.366852,401.472290 
	C201.607208,401.517303 201.847565,401.562317 202.019257,401.825500 
	C201.950592,402.043701 201.986481,402.013000 202.004730,401.998138 
z"/>
<path fill="#026369" opacity="1.000000" stroke="none" 
	d="
M94.993370,693.005066 
	C95.221031,693.159058 95.460815,693.302429 95.700607,693.445801 
	C95.458397,693.438843 95.216187,693.431885 95.001556,693.197998 
	C95.029144,692.971130 95.005493,692.994446 94.993370,693.005066 
z"/>
</svg>