<svg version="1.1" id="Layer_1" xmlns="http://www.w3.org/2000/svg" xmlns:xlink="http://www.w3.org/1999/xlink" x="0px" y="0px"
	 width="100%" viewBox="0 0 1000 1000" enable-background="new 0 0 1000 1000" xml:space="preserve">
<path fill="#FEFFFF" opacity="1.000000" stroke="none" 
	d="
M1001.000000,368.000000 
	C1001.000000,579.333313 1001.000000,790.166687 1001.000000,1001.000000 
	C667.666687,1001.000000 334.333344,1001.000000 1.000000,1001.000000 
	C1.000000,667.666687 1.000000,334.333344 1.000000,1.000000 
	C334.333344,1.000000 667.666687,1.000000 1001.000000,1.000000 
	C1001.000000,123.166664 1001.000000,245.333328 1001.000000,368.000000 
M908.098877,262.421509 
	C907.427368,261.709290 906.755859,260.997040 905.886047,259.803101 
	C905.779114,259.666321 905.672180,259.529541 905.631226,258.874115 
	C905.219055,258.371277 904.806946,257.868439 904.085388,256.750977 
	C903.589844,255.977158 903.094299,255.203339 902.619934,253.852631 
	C902.102783,253.344452 901.585632,252.836288 900.883728,251.831436 
	C900.781860,251.687149 900.679932,251.542862 900.620972,250.705231 
	C897.731018,245.670837 895.325256,240.272049 891.861511,235.669495 
	C880.898193,221.101807 869.594055,206.788544 858.284058,192.485779 
	C856.197327,189.846832 853.468079,187.716064 850.999939,184.618286 
	C847.184509,180.056747 843.768677,175.072647 839.477295,171.014465 
	C827.540527,159.726303 815.338257,148.711655 803.024780,137.833557 
	C799.228027,134.479355 794.736145,131.912018 790.450439,128.377518 
	C783.419373,122.809174 776.821289,116.549614 769.266663,111.817078 
	C753.764893,102.106163 738.149658,92.423515 721.844727,84.186958 
	C702.112854,74.219345 682.024963,64.680069 661.356140,56.910973 
	C632.981567,46.245449 603.423645,39.532211 573.368408,35.056122 
	C544.492004,30.755606 515.594666,28.855886 486.353271,29.805492 
	C450.217407,30.978992 414.951508,37.079258 380.004272,45.645142 
	C373.835266,47.157219 367.936218,49.770779 361.107544,51.771801 
	C348.775238,56.105728 336.164612,59.791386 324.180267,64.935905 
	C308.829285,71.525604 293.975891,79.276260 278.937592,86.587379 
	C278.173492,86.958870 277.688080,87.903625 276.314453,88.715897 
	C263.598999,96.252663 250.046280,102.686066 238.347916,111.563148 
	C216.155884,128.403152 194.557175,146.110352 173.646606,164.518982 
	C162.617905,174.228088 153.559525,186.175278 142.976578,197.149887 
	C141.142975,199.490784 139.298782,201.823471 137.477600,204.173996 
	C129.659592,214.264359 121.307617,223.992340 114.144363,234.528259 
	C97.951668,258.344910 84.510506,283.745087 72.968109,310.123779 
	C69.739853,317.501526 67.091019,325.132843 63.950466,333.398895 
	C62.710400,336.649292 61.376785,339.867493 60.245377,343.155273 
	C52.665226,365.182648 46.133995,387.533447 42.499153,410.553253 
	C39.395290,430.210358 37.270790,450.024353 34.834251,469.783875 
	C33.108902,483.775818 32.244186,497.672943 33.239101,511.927765 
	C34.687412,532.678711 36.384857,553.335571 39.772297,573.853821 
	C43.782398,598.143616 48.634262,622.229248 56.814541,646.212769 
	C58.538494,652.091309 59.658726,658.234192 62.096592,663.800049 
	C70.282990,682.490417 78.165985,701.380981 87.638412,719.421265 
	C96.647095,736.578369 107.504555,752.764771 117.513519,769.569519 
	C117.513519,769.569519 117.869232,769.575317 118.058289,770.190979 
	C118.379700,770.459106 118.701111,770.727234 119.096069,771.686279 
	C141.541229,801.237427 164.931107,829.796387 193.563507,853.892395 
	C221.692230,877.564453 251.182068,898.827881 283.952423,915.703430 
	C316.213684,932.316833 349.446289,946.297607 384.706512,954.783997 
	C405.198090,959.715881 426.112549,962.984680 446.933746,966.412292 
	C456.845306,968.044006 466.983398,968.299316 477.950073,969.270874 
	C494.961487,969.218689 511.972900,969.166504 529.603455,969.467041 
	C531.078979,969.260437 532.554688,969.055664 534.029968,968.847229 
	C555.374817,965.831787 576.791748,963.246765 598.045837,959.689026 
	C623.719727,955.391479 648.775024,948.312317 672.626648,937.936035 
	C695.486877,927.991028 718.133118,917.375000 740.104736,905.617310 
	C761.518921,894.157898 781.235657,879.835938 799.754761,864.026184 
	C804.567139,859.917847 809.008057,855.374512 814.342773,850.966675 
	C816.323425,849.246887 818.311951,847.536072 820.283142,845.805481 
	C826.382629,840.450562 833.157715,835.682312 838.441589,829.615906 
	C853.594788,812.218567 868.500183,794.575623 882.769775,776.451843 
	C889.366333,768.073486 894.257690,758.352417 900.297729,748.657959 
	C900.380249,748.442322 900.462830,748.226624 901.188354,747.991516 
	C902.693787,745.380371 904.199280,742.769226 906.068115,739.520874 
	C907.252380,737.709351 908.622864,735.991943 909.592957,734.072083 
	C923.700745,706.153870 938.812500,678.608276 947.614258,648.419312 
	C953.837402,627.074585 959.512146,605.478577 963.717468,583.664246 
	C967.446472,564.320923 969.569763,544.576538 970.987488,524.907227 
	C972.177124,508.401978 971.489746,491.747894 971.301941,475.163422 
	C971.225098,468.380615 970.275391,461.607697 970.000000,453.985504 
	C969.925842,451.827271 970.118347,449.620575 969.736267,447.518311 
	C965.950745,426.689575 962.611450,405.759430 958.079346,385.091888 
	C952.425354,359.308014 944.652893,334.134735 932.358582,310.088318 
	C924.933777,294.995239 917.523315,279.895020 910.041809,264.830109 
	C909.666321,264.074127 908.675354,263.623840 907.952515,263.017303 
	C907.952515,263.017303 907.946350,263.042419 908.098877,262.421509 
z"/>
<path fill="#55D2DD" opacity="1.000000" stroke="none" 
	d="
M899.922180,749.240173 
	C894.257690,758.352417 889.366333,768.073486 882.769775,776.451843 
	C868.500183,794.575623 853.594788,812.218567 838.441589,829.615906 
	C833.157715,835.682312 826.382629,840.450562 820.283142,845.805481 
	C818.311951,847.536072 816.323425,849.246887 813.676880,851.089111 
	C810.759155,852.208557 808.507263,853.205627 805.858948,854.354736 
	C803.237183,855.201721 801.011475,855.895264 798.786621,856.591614 
	C765.762512,866.928223 732.901550,877.826843 699.675537,887.467529 
	C652.602905,901.125793 604.583008,910.194641 555.551575,912.721191 
	C519.379333,914.585083 483.376129,912.363647 447.742065,905.451721 
	C414.188965,898.943420 381.228271,890.158691 349.409393,877.695068 
	C317.672180,865.263489 285.807404,852.951538 254.924377,838.595520 
	C213.119003,819.162231 172.199341,797.824036 130.885086,777.332458 
	C128.995071,776.395081 126.961365,775.747375 124.995361,774.988281 
	C124.996147,775.011841 125.043633,775.008179 124.961853,774.739258 
	C124.572250,774.259521 124.264435,774.048706 123.758804,773.588257 
	C122.048164,772.557617 120.535332,771.776489 119.022507,770.995422 
	C118.701111,770.727234 118.379700,770.459106 117.900711,769.870361 
	C117.743126,769.549683 117.549118,769.377930 117.549126,769.377930 
	C107.504555,752.764771 96.647095,736.578369 87.638412,719.421265 
	C78.165985,701.380981 70.282990,682.490417 62.096592,663.800049 
	C59.658726,658.234192 58.538494,652.091309 57.101990,645.492554 
	C57.928558,643.567688 58.596931,642.403381 58.987446,641.152344 
	C65.181602,621.309387 71.453964,601.489502 77.451828,581.587036 
	C79.913391,573.418945 83.601440,565.340210 80.871864,556.378845 
	C80.201736,554.178772 80.090965,551.789978 79.871017,549.473877 
	C77.483421,524.331238 74.732697,499.214874 72.865265,474.033173 
	C70.836563,446.676758 69.510437,419.265259 68.119781,391.865540 
	C67.183586,373.420105 66.700111,354.951904 65.892227,336.499268 
	C65.835045,335.192932 64.771812,333.930603 64.176376,332.647827 
	C67.091019,325.132843 69.739853,317.501526 72.968109,310.123779 
	C84.510506,283.745087 97.951668,258.344910 114.144363,234.528259 
	C121.307617,223.992340 129.659592,214.264359 137.477600,204.173996 
	C139.298782,201.823471 141.142975,199.490784 143.436737,197.460144 
	C144.950378,198.729965 145.872681,199.916824 147.078400,200.612503 
	C155.434570,205.433762 163.880783,210.098816 172.240738,214.913620 
	C221.149353,243.081894 270.616364,270.197418 321.861603,293.932831 
	C358.716888,311.003265 396.364990,325.935730 435.381744,337.500854 
	C478.345947,350.236115 522.072327,358.398987 566.807800,359.686798 
	C593.546570,360.456543 620.432495,359.868500 647.111755,357.942932 
	C676.403870,355.828735 705.737732,352.684692 734.687622,347.814667 
	C777.587830,340.597900 820.212524,331.695862 862.861938,323.054230 
	C885.002136,318.568237 906.943420,313.100830 929.147339,308.305054 
	C930.263184,309.247620 931.206360,309.961945 932.149536,310.676208 
	C944.652893,334.134735 952.425354,359.308014 958.079346,385.091888 
	C962.611450,405.759430 965.950745,426.689575 969.736267,447.518311 
	C970.118347,449.620575 969.925842,451.827271 969.549927,454.559753 
	C968.213745,456.246613 967.007202,457.229004 966.493896,458.492950 
	C963.303711,466.349060 960.227844,474.252441 957.189209,482.169037 
	C935.973083,537.444458 914.128845,592.459229 889.463928,646.313538 
	C888.620605,648.154846 888.167969,650.537659 888.504211,652.501892 
	C893.295166,680.489380 898.228516,708.452881 903.249390,736.400208 
	C903.492981,737.756104 904.860535,738.910034 905.704712,740.158020 
	C904.199280,742.769226 902.693787,745.380371 900.546265,747.803833 
	C896.003235,746.337402 894.838013,743.097839 894.223572,739.540222 
	C892.472168,729.399292 890.800232,719.244568 889.049500,709.103516 
	C886.544617,694.594604 883.997681,680.093018 881.222534,664.176941 
	C859.541077,706.323120 839.472900,747.927063 804.445374,779.625427 
	C806.338867,779.516418 807.921997,779.123047 809.460876,778.599365 
	C836.873901,769.271912 864.269653,759.893433 891.709473,750.645447 
	C894.309570,749.769104 897.178223,749.689636 899.922180,749.240173 
M614.019043,593.512756 
	C598.726624,572.040527 582.413879,551.455566 561.960083,534.555664 
	C535.812561,512.951172 506.600647,503.582092 472.776855,512.104431 
	C451.769653,517.397522 432.322174,526.284790 413.625275,536.953369 
	C382.461700,554.735657 353.985382,576.400085 325.564728,598.147888 
	C322.507751,600.487061 322.369629,602.625732 323.830688,605.786377 
	C344.227142,649.908997 364.583130,694.056030 390.668335,735.232422 
	C404.698242,757.379150 420.094604,778.423218 440.586304,795.228760 
	C463.063568,813.662659 487.235535,817.238220 513.473877,803.872131 
	C535.653931,792.573303 553.598450,775.974182 570.255066,757.937012 
	C599.575317,726.186829 624.522766,691.039246 648.888489,655.459717 
	C650.634705,652.909851 650.800720,651.103088 649.048157,648.392517 
	C637.394897,630.368835 625.948669,612.211243 614.019043,593.512756 
M96.926521,594.559143 
	C99.999031,606.297180 102.647423,618.167358 106.250732,629.740112 
	C110.817368,644.406738 116.781807,658.564453 126.523750,670.688965 
	C137.637314,684.520508 151.502411,691.607910 169.826889,688.144226 
	C184.333206,685.402283 197.672974,679.600708 209.654068,671.551575 
	C233.120331,655.786682 255.975876,639.100952 278.867828,622.498108 
	C289.472168,614.807129 299.569061,606.416443 310.009155,598.254517 
	C304.890717,586.756104 299.973114,575.665039 295.020020,564.589783 
	C276.738068,523.710876 259.168182,482.481384 236.752106,443.603027 
	C228.676025,429.595947 219.934509,415.997955 207.251266,405.528931 
	C194.888947,395.324799 181.624817,395.158539 169.061050,405.203125 
	C156.152069,415.523743 147.775604,429.385101 140.206024,443.680725 
	C119.782799,482.251221 106.232178,523.560059 92.569626,564.807373 
	C92.167183,566.022339 91.971809,567.455994 92.185722,568.700745 
	C93.622108,577.059204 95.195580,585.394043 96.926521,594.559143 
M872.781982,621.853760 
	C869.835449,609.390076 867.208069,596.840332 863.876160,584.480530 
	C856.856934,558.442200 849.272095,532.638977 835.220337,509.191223 
	C820.421936,484.497742 800.529297,479.901978 778.529602,498.363708 
	C766.647217,508.335205 755.378906,519.703979 746.304993,532.232361 
	C718.501587,570.620667 691.919434,609.892700 664.766602,648.754150 
	C662.815613,651.546387 663.022888,653.629333 664.706299,656.390503 
	C670.248413,665.481018 675.456909,674.774292 680.952087,683.894226 
	C697.522095,711.394165 713.003357,739.704224 735.312439,763.188904 
	C741.390930,769.587708 748.687744,775.405518 756.476990,779.479492 
	C771.383850,787.276428 785.463501,782.107849 797.023987,772.034790 
	C807.348938,763.038208 816.898438,752.804138 825.206970,741.908813 
	C846.415161,714.097656 861.520691,682.654236 876.647278,651.305969 
	C877.560974,649.412537 877.639160,646.801453 877.277771,644.664368 
	C876.032959,637.302917 874.420349,630.003723 872.781982,621.853760 
M239.697189,740.853821 
	C241.075378,741.436279 242.455444,742.014404 243.831512,742.601868 
	C278.550049,757.425293 313.046997,772.798096 348.051117,786.913391 
	C380.318634,799.924988 413.994934,808.698059 447.784912,816.871155 
	C450.328613,817.486389 452.980469,817.654419 455.582031,818.030396 
	C455.717926,817.569580 455.853790,817.108765 455.989685,816.647949 
	C452.859863,814.986755 449.551666,813.590515 446.628326,811.622559 
	C422.005859,795.047668 403.742004,772.504028 387.631989,748.044434 
	C362.012329,709.146484 341.840607,667.337036 322.406342,625.144958 
	C319.728363,619.330994 316.978424,613.550110 314.038574,607.277588 
	C309.328217,610.921570 305.343445,614.150024 301.211334,617.177307 
	C273.981506,637.126587 247.076813,657.548462 219.323227,676.742126 
	C204.715347,686.844543 188.616318,694.844666 170.608536,697.597961 
	C166.371262,698.245850 162.036057,698.253174 157.745895,698.555176 
	C157.629211,698.996094 157.512527,699.436951 157.395844,699.877869 
	C184.605972,713.423889 211.816116,726.969910 239.697189,740.853821 
M624.241577,706.729736 
	C603.929810,734.219421 582.519104,760.769165 557.378784,784.073364 
	C543.889038,796.577759 529.372986,807.847961 512.191284,814.705627 
	C502.580200,818.541687 492.212616,820.482178 483.593811,822.884399 
	C578.063843,836.639648 670.918518,820.224548 763.593628,792.754395 
	C759.835876,791.319336 757.027100,790.350952 754.301208,789.188477 
	C738.395020,782.405029 726.709351,770.317200 717.163513,756.688354 
	C701.808472,734.765442 687.683594,711.973999 673.267090,689.403809 
	C667.557129,680.464355 662.457458,671.135010 656.679016,661.300842 
	C645.669250,676.699707 635.149719,691.412781 624.241577,706.729736 
M259.654114,422.852264 
	C247.620453,417.166077 235.586792,411.479889 223.553131,405.793701 
	C223.285782,407.316833 223.500610,407.952576 223.904144,408.428223 
	C239.221451,426.479889 250.649521,447.027374 260.787354,468.184052 
	C276.684448,501.359650 291.667572,534.973206 307.031311,568.404297 
	C310.547516,576.055481 314.037323,583.718872 317.793579,591.932861 
	C320.509186,589.941772 322.643677,588.435608 324.716064,586.848389 
	C355.123169,563.559998 385.769989,540.602844 419.851685,522.804138 
	C440.441223,512.051453 461.637878,502.861633 485.148407,500.564270 
	C485.591827,500.520905 485.984741,499.960785 486.930389,499.236420 
	C447.109619,491.901947 408.780640,481.635254 371.198853,468.586487 
	C333.417725,455.468536 296.588379,440.024261 259.654114,422.852264 
M683.049561,604.580811 
	C691.207275,592.614014 698.989197,580.368713 707.606323,568.742432 
	C722.363098,548.832458 737.452148,529.159485 752.815125,509.713623 
	C757.578003,503.684967 763.680969,498.715027 769.170410,493.260376 
	C690.841003,505.360748 612.723267,512.475586 532.975769,505.203949 
	C534.100952,506.200226 534.397888,506.627563 534.802856,506.798004 
	C553.704041,514.752136 569.497253,527.161499 583.721802,541.598083 
	C608.546021,566.792358 628.009277,596.034058 646.487976,625.980713 
	C649.854736,631.437012 653.245605,636.878418 657.179688,643.220093 
	C666.047424,629.960388 674.338379,617.563110 683.049561,604.580811 
M910.397400,574.866943 
	C926.458984,534.497498 942.520569,494.128021 959.150085,452.330994 
	C912.944519,462.620300 868.459839,472.526428 823.414001,482.557495 
	C841.316284,496.975952 848.072449,511.404480 853.990417,524.749329 
	C865.645020,551.030151 872.528687,578.784302 879.001282,606.654358 
	C880.928711,614.953369 882.746094,623.278015 884.614014,631.590942 
	C885.029358,631.645203 885.444702,631.699524 885.860107,631.753784 
	C893.926453,613.021606 901.992798,594.289429 910.397400,574.866943 
M80.130035,445.480652 
	C82.635857,477.848785 85.141670,510.216949 87.647484,542.585083 
	C88.265343,542.622009 88.883202,542.658936 89.501053,542.695862 
	C90.096321,541.260620 90.750504,539.846741 91.277740,538.386902 
	C96.531677,523.839600 101.524345,509.192627 107.056091,494.752045 
	C117.066719,468.619293 127.956726,442.865234 143.717529,419.540863 
	C151.514832,408.001678 160.410049,397.392059 173.454529,391.432068 
	C177.518387,389.575348 182.064041,388.773071 186.832138,387.356506 
	C149.545151,367.399963 112.676689,347.667450 74.881721,327.439056 
	C76.646698,367.162384 78.365211,405.839752 80.130035,445.480652 
M85.667160,587.963013 
	C85.096008,589.311279 84.405846,590.622375 83.971649,592.013428 
	C77.895088,611.479919 71.853455,630.957275 65.768623,650.543762 
	C83.146187,659.937439 100.744080,669.450195 118.341965,678.963013 
	C118.257233,676.460327 117.248062,674.693665 116.301476,672.893982 
	C111.510292,663.785217 105.462204,655.095581 102.226135,645.462402 
	C95.948219,626.774170 91.254219,607.553894 85.667160,587.963013 
M221.463699,404.628174 
	C221.463699,404.628174 221.410629,404.536591 221.463699,404.628174 
z"/>
<path fill="#016167" opacity="1.000000" stroke="none" 
	d="
M928.974609,308.076782 
	C906.943420,313.100830 885.002136,318.568237 862.861938,323.054230 
	C820.212524,331.695862 777.587830,340.597900 734.687622,347.814667 
	C705.737732,352.684692 676.403870,355.828735 647.111755,357.942932 
	C620.432495,359.868500 593.546570,360.456543 566.807800,359.686798 
	C522.072327,358.398987 478.345947,350.236115 435.381744,337.500854 
	C396.364990,325.935730 358.716888,311.003265 321.861603,293.932831 
	C270.616364,270.197418 221.149353,243.081894 172.240738,214.913620 
	C163.880783,210.098816 155.434570,205.433762 147.078400,200.612503 
	C145.872681,199.916824 144.950378,198.729965 143.754211,197.441177 
	C153.559525,186.175278 162.617905,174.228088 173.646606,164.518982 
	C194.557175,146.110352 216.155884,128.403152 238.347916,111.563148 
	C250.046280,102.686066 263.598999,96.252663 276.756104,89.001709 
	C280.065002,91.802658 282.707001,94.648544 285.835846,96.779495 
	C306.892670,111.120522 327.846924,125.627480 349.221680,139.483215 
	C396.029938,169.825684 444.622894,196.581863 498.678558,212.089905 
	C527.109802,220.246506 556.107544,224.777115 585.619080,225.784302 
	C617.274292,226.864639 648.848450,225.401154 680.240173,221.044952 
	C702.122375,218.008331 724.059143,215.206635 745.795776,211.317902 
	C773.597290,206.344131 801.252747,200.529709 828.902466,194.748749 
	C836.308350,193.200348 843.463989,190.455490 851.044067,188.502289 
	C855.697815,193.724060 860.369751,198.457870 864.322144,203.730988 
	C874.311462,217.058594 883.925171,230.667099 893.816833,244.069046 
	C895.778931,246.727478 898.309570,248.966263 900.578064,251.398560 
	C900.679932,251.542862 900.781860,251.687149 900.715942,252.417206 
	C901.231689,253.478500 901.915161,253.954025 902.598755,254.429535 
	C903.094299,255.203339 903.589844,255.977158 903.895508,257.333527 
	C904.325439,258.408295 904.945312,258.900513 905.565186,259.392761 
	C905.672180,259.529541 905.779114,259.666321 905.719727,260.354065 
	C906.351074,261.617462 907.148743,262.329926 907.946350,263.042419 
	C907.946350,263.042419 907.952515,263.017303 907.878113,263.421509 
	C908.486572,266.018951 908.886841,268.353058 909.898499,270.382385 
	C916.180908,282.985229 922.600464,295.519684 928.974609,308.076782 
z"/>
<path fill="#55D2DE" opacity="1.000000" stroke="none" 
	d="
M850.734558,188.259888 
	C843.463989,190.455490 836.308350,193.200348 828.902466,194.748749 
	C801.252747,200.529709 773.597290,206.344131 745.795776,211.317902 
	C724.059143,215.206635 702.122375,218.008331 680.240173,221.044952 
	C648.848450,225.401154 617.274292,226.864639 585.619080,225.784302 
	C556.107544,224.777115 527.109802,220.246506 498.678558,212.089905 
	C444.622894,196.581863 396.029938,169.825684 349.221680,139.483215 
	C327.846924,125.627480 306.892670,111.120522 285.835846,96.779495 
	C282.707001,94.648544 280.065002,91.802658 277.135345,88.934494 
	C277.688080,87.903625 278.173492,86.958870 278.937592,86.587379 
	C293.975891,79.276260 308.829285,71.525604 324.180267,64.935905 
	C336.164612,59.791386 348.775238,56.105728 361.853333,51.861313 
	C364.003418,52.619858 365.407715,53.288895 367.144409,54.103271 
	C397.110016,69.756050 426.465363,85.827797 456.461639,100.597939 
	C481.879395,113.113602 508.794342,121.859230 536.476685,128.182358 
	C562.535034,134.134552 588.992126,137.307571 615.598145,137.642853 
	C644.542725,138.007629 673.546204,137.216293 702.457703,135.681030 
	C730.006348,134.218124 757.469666,131.146774 785.371216,128.862213 
	C787.368774,128.956024 788.965698,128.970200 790.562561,128.984375 
	C794.736145,131.912018 799.228027,134.479355 803.024780,137.833557 
	C815.338257,148.711655 827.540527,159.726303 839.477295,171.014465 
	C843.768677,175.072647 847.184509,180.056747 851.039612,185.278076 
	C850.964355,186.711884 850.849487,187.485901 850.734558,188.259888 
z"/>
<path fill="#036268" opacity="1.000000" stroke="none" 
	d="
M124.994560,774.964722 
	C126.961365,775.747375 128.995071,776.395081 130.885086,777.332458 
	C172.199341,797.824036 213.119003,819.162231 254.924377,838.595520 
	C285.807404,852.951538 317.672180,865.263489 349.409393,877.695068 
	C381.228271,890.158691 414.188965,898.943420 447.742065,905.451721 
	C483.376129,912.363647 519.379333,914.585083 555.551575,912.721191 
	C604.583008,910.194641 652.602905,901.125793 699.675537,887.467529 
	C732.901550,877.826843 765.762512,866.928223 798.786621,856.591614 
	C801.011475,855.895264 803.237183,855.201721 805.760254,854.764404 
	C805.341248,855.920776 804.771118,857.010498 803.885925,857.689758 
	C791.262573,867.375244 779.105286,877.785706 765.810791,886.448730 
	C749.597656,897.013489 732.654419,906.532654 715.607056,915.725342 
	C687.151611,931.069946 656.886597,942.117126 625.915527,951.133118 
	C615.625488,954.128723 604.982483,956.115540 594.378174,957.783569 
	C574.772705,960.867676 555.066956,963.310608 535.431641,966.214600 
	C533.188660,966.546265 531.128967,968.117676 528.984314,969.114319 
	C511.972900,969.166504 494.961487,969.218689 477.240204,968.951660 
	C474.567139,967.799683 472.668304,966.503357 470.628754,966.219971 
	C464.239929,965.332458 457.739716,965.174927 451.387238,964.110474 
	C429.188416,960.391052 406.799927,957.395630 384.935760,952.215881 
	C367.415985,948.065430 350.322845,941.741455 333.468536,935.267456 
	C318.931305,929.683472 304.881104,922.770569 290.822845,916.013855 
	C265.452087,903.820129 241.155060,889.777588 219.402374,871.761047 
	C203.179901,858.324890 186.574188,845.228882 171.460663,830.614685 
	C159.231018,818.789124 148.873566,805.008423 137.884262,791.928162 
	C133.321564,786.497314 129.275528,780.632324 124.994560,774.964722 
z"/>
<path fill="#056369" opacity="1.000000" stroke="none" 
	d="
M905.886353,739.839478 
	C904.860535,738.910034 903.492981,737.756104 903.249390,736.400208 
	C898.228516,708.452881 893.295166,680.489380 888.504211,652.501892 
	C888.167969,650.537659 888.620605,648.154846 889.463928,646.313538 
	C914.128845,592.459229 935.973083,537.444458 957.189209,482.169037 
	C960.227844,474.252441 963.303711,466.349060 966.493896,458.492950 
	C967.007202,457.229004 968.213745,456.246613 969.411255,454.982147 
	C970.275391,461.607697 971.225098,468.380615 971.301941,475.163422 
	C971.489746,491.747894 972.177124,508.401978 970.987488,524.907227 
	C969.569763,544.576538 967.446472,564.320923 963.717468,583.664246 
	C959.512146,605.478577 953.837402,627.074585 947.614258,648.419312 
	C938.812500,678.608276 923.700745,706.153870 909.592957,734.072083 
	C908.622864,735.991943 907.252380,737.709351 905.886353,739.839478 
z"/>
<path fill="#066369" opacity="1.000000" stroke="none" 
	d="
M64.063423,333.023376 
	C64.771812,333.930603 65.835045,335.192932 65.892227,336.499268 
	C66.700111,354.951904 67.183586,373.420105 68.119781,391.865540 
	C69.510437,419.265259 70.836563,446.676758 72.865265,474.033173 
	C74.732697,499.214874 77.483421,524.331238 79.871017,549.473877 
	C80.090965,551.789978 80.201736,554.178772 80.871864,556.378845 
	C83.601440,565.340210 79.913391,573.418945 77.451828,581.587036 
	C71.453964,601.489502 65.181602,621.309387 58.987446,641.152344 
	C58.596931,642.403381 57.928558,643.567688 57.208603,645.117249 
	C48.634262,622.229248 43.782398,598.143616 39.772297,573.853821 
	C36.384857,553.335571 34.687412,532.678711 33.239101,511.927765 
	C32.244186,497.672943 33.108902,483.775818 34.834251,469.783875 
	C37.270790,450.024353 39.395290,430.210358 42.499153,410.553253 
	C46.133995,387.533447 52.665226,365.182648 60.245377,343.155273 
	C61.376785,339.867493 62.710400,336.649292 64.063423,333.023376 
z"/>
<path fill="#02646A" opacity="1.000000" stroke="none" 
	d="
M900.109985,748.949097 
	C897.178223,749.689636 894.309570,749.769104 891.709473,750.645447 
	C864.269653,759.893433 836.873901,769.271912 809.460876,778.599365 
	C807.921997,779.123047 806.338867,779.516418 804.445374,779.625427 
	C839.472900,747.927063 859.541077,706.323120 881.222534,664.176941 
	C883.997681,680.093018 886.544617,694.594604 889.049500,709.103516 
	C890.800232,719.244568 892.472168,729.399292 894.223572,739.540222 
	C894.838013,743.097839 896.003235,746.337402 900.224854,747.813538 
	C900.462830,748.226624 900.380249,748.442322 900.109985,748.949097 
z"/>
<path fill="#688D90" opacity="1.000000" stroke="none" 
	d="
M790.506470,128.680939 
	C788.965698,128.970200 787.368774,128.956024 785.382446,128.522247 
	C783.827332,126.761986 782.872986,125.119255 781.460632,124.131042 
	C773.868042,118.818466 766.156433,113.676193 758.495361,108.461174 
	C737.171204,93.945366 714.199524,82.474091 690.815491,71.751968 
	C670.550842,62.460182 649.629211,54.842560 628.118225,49.202087 
	C606.664185,43.576527 584.938110,39.158802 562.802429,36.510098 
	C539.572693,33.730476 516.405701,31.368578 493.019745,32.838398 
	C476.327820,33.887493 459.670410,35.475292 442.989868,36.718834 
	C418.378387,38.553623 394.643402,44.757721 370.942657,51.110783 
	C369.420715,51.518738 368.182312,52.984333 366.812012,53.957928 
	C365.407715,53.288895 364.003418,52.619858 362.255798,51.913246 
	C367.936218,49.770779 373.835266,47.157219 380.004272,45.645142 
	C414.951508,37.079258 450.217407,30.978992 486.353271,29.805492 
	C515.594666,28.855886 544.492004,30.755606 573.368408,35.056122 
	C603.423645,39.532211 632.981567,46.245449 661.356140,56.910973 
	C682.024963,64.680069 702.112854,74.219345 721.844727,84.186958 
	C738.149658,92.423515 753.764893,102.106163 769.266663,111.817078 
	C776.821289,116.549614 783.419373,122.809174 790.506470,128.680939 
z"/>
<path fill="#6B8F93" opacity="1.000000" stroke="none" 
	d="
M124.995346,774.988281 
	C129.275528,780.632324 133.321564,786.497314 137.884262,791.928162 
	C148.873566,805.008423 159.231018,818.789124 171.460663,830.614685 
	C186.574188,845.228882 203.179901,858.324890 219.402374,871.761047 
	C241.155060,889.777588 265.452087,903.820129 290.822845,916.013855 
	C304.881104,922.770569 318.931305,929.683472 333.468536,935.267456 
	C350.322845,941.741455 367.415985,948.065430 384.935760,952.215881 
	C406.799927,957.395630 429.188416,960.391052 451.387238,964.110474 
	C457.739716,965.174927 464.239929,965.332458 470.628754,966.219971 
	C472.668304,966.503357 474.567139,967.799683 476.774597,968.905273 
	C466.983398,968.299316 456.845306,968.044006 446.933746,966.412292 
	C426.112549,962.984680 405.198090,959.715881 384.706512,954.783997 
	C349.446289,946.297607 316.213684,932.316833 283.952423,915.703430 
	C251.182068,898.827881 221.692230,877.564453 193.563507,853.892395 
	C164.931107,829.796387 141.541229,801.237427 119.059280,771.340820 
	C120.535332,771.776489 122.048164,772.557617 123.855484,773.855713 
	C124.447868,774.584595 124.745750,774.796387 125.043640,775.008179 
	C125.043633,775.008179 124.996147,775.011841 124.995346,774.988281 
z"/>
<path fill="#6B8F93" opacity="1.000000" stroke="none" 
	d="
M529.293884,969.290649 
	C531.128967,968.117676 533.188660,966.546265 535.431641,966.214600 
	C555.066956,963.310608 574.772705,960.867676 594.378174,957.783569 
	C604.982483,956.115540 615.625488,954.128723 625.915527,951.133118 
	C656.886597,942.117126 687.151611,931.069946 715.607056,915.725342 
	C732.654419,906.532654 749.597656,897.013489 765.810791,886.448730 
	C779.105286,877.785706 791.262573,867.375244 803.885925,857.689758 
	C804.771118,857.010498 805.341248,855.920776 806.156616,854.612305 
	C808.507263,853.205627 810.759155,852.208557 813.315308,851.121216 
	C809.008057,855.374512 804.567139,859.917847 799.754761,864.026184 
	C781.235657,879.835938 761.518921,894.157898 740.104736,905.617310 
	C718.133118,917.375000 695.486877,927.991028 672.626648,937.936035 
	C648.775024,948.312317 623.719727,955.391479 598.045837,959.689026 
	C576.791748,963.246765 555.374817,965.831787 534.029968,968.847229 
	C532.554688,969.055664 531.078979,969.260437 529.293884,969.290649 
z"/>
<path fill="#658C8F" opacity="1.000000" stroke="none" 
	d="
M851.044067,188.502289 
	C850.849487,187.485901 850.964355,186.711884 851.057373,185.644318 
	C853.468079,187.716064 856.197327,189.846832 858.284058,192.485779 
	C869.594055,206.788544 880.898193,221.101807 891.861511,235.669495 
	C895.325256,240.272049 897.731018,245.670837 900.599487,251.051895 
	C898.309570,248.966263 895.778931,246.727478 893.816833,244.069046 
	C883.925171,230.667099 874.311462,217.058594 864.322144,203.730988 
	C860.369751,198.457870 855.697815,193.724060 851.044067,188.502289 
z"/>
<path fill="#6A9094" opacity="1.000000" stroke="none" 
	d="
M929.147339,308.305054 
	C922.600464,295.519684 916.180908,282.985229 909.898499,270.382385 
	C908.886841,268.353058 908.486572,266.018951 907.887329,263.428497 
	C908.675354,263.623840 909.666321,264.074127 910.041809,264.830109 
	C917.523315,279.895020 924.933777,294.995239 932.254028,310.382263 
	C931.206360,309.961945 930.263184,309.247620 929.147339,308.305054 
z"/>
<path fill="#658C8F" opacity="1.000000" stroke="none" 
	d="
M908.022583,262.731964 
	C907.148743,262.329926 906.351074,261.617462 905.818909,260.594910 
	C906.755859,260.997040 907.427368,261.709290 908.022583,262.731964 
z"/>
<path fill="#658C8F" opacity="1.000000" stroke="none" 
	d="
M905.598206,259.133423 
	C904.945312,258.900513 904.325439,258.408295 904.050171,257.640839 
	C904.806946,257.868439 905.219055,258.371277 905.598206,259.133423 
z"/>
<path fill="#658C8F" opacity="1.000000" stroke="none" 
	d="
M902.609314,254.141083 
	C901.915161,253.954025 901.231689,253.478500 900.808289,252.665543 
	C901.585632,252.836288 902.102783,253.344452 902.609314,254.141083 
z"/>
<path fill="#6B8F93" opacity="1.000000" stroke="none" 
	d="
M117.531319,769.473755 
	C117.549118,769.377930 117.743126,769.549683 117.806183,769.562500 
	C117.869232,769.575317 117.513519,769.569519 117.531319,769.473755 
z"/>
<path fill="#006167" opacity="1.000000" stroke="none" 
	d="
M614.227051,593.804932 
	C625.948669,612.211243 637.394897,630.368835 649.048157,648.392517 
	C650.800720,651.103088 650.634705,652.909851 648.888489,655.459717 
	C624.522766,691.039246 599.575317,726.186829 570.255066,757.937012 
	C553.598450,775.974182 535.653931,792.573303 513.473877,803.872131 
	C487.235535,817.238220 463.063568,813.662659 440.586304,795.228760 
	C420.094604,778.423218 404.698242,757.379150 390.668335,735.232422 
	C364.583130,694.056030 344.227142,649.908997 323.830688,605.786377 
	C322.369629,602.625732 322.507751,600.487061 325.564728,598.147888 
	C353.985382,576.400085 382.461700,554.735657 413.625275,536.953369 
	C432.322174,526.284790 451.769653,517.397522 472.776855,512.104431 
	C506.600647,503.582092 535.812561,512.951172 561.960083,534.555664 
	C582.413879,551.455566 598.726624,572.040527 614.227051,593.804932 
z"/>
<path fill="#006268" opacity="1.000000" stroke="none" 
	d="
M96.825562,594.147827 
	C95.195580,585.394043 93.622108,577.059204 92.185722,568.700745 
	C91.971809,567.455994 92.167183,566.022339 92.569626,564.807373 
	C106.232178,523.560059 119.782799,482.251221 140.206024,443.680725 
	C147.775604,429.385101 156.152069,415.523743 169.061050,405.203125 
	C181.624817,395.158539 194.888947,395.324799 207.251266,405.528931 
	C219.934509,415.997955 228.676025,429.595947 236.752106,443.603027 
	C259.168182,482.481384 276.738068,523.710876 295.020020,564.589783 
	C299.973114,575.665039 304.890717,586.756104 310.009155,598.254517 
	C299.569061,606.416443 289.472168,614.807129 278.867828,622.498108 
	C255.975876,639.100952 233.120331,655.786682 209.654068,671.551575 
	C197.672974,679.600708 184.333206,685.402283 169.826889,688.144226 
	C151.502411,691.607910 137.637314,684.520508 126.523750,670.688965 
	C116.781807,658.564453 110.817368,644.406738 106.250732,629.740112 
	C102.647423,618.167358 99.999031,606.297180 96.825562,594.147827 
z"/>
<path fill="#006268" opacity="1.000000" stroke="none" 
	d="
M872.864868,622.267273 
	C874.420349,630.003723 876.032959,637.302917 877.277771,644.664368 
	C877.639160,646.801453 877.560974,649.412537 876.647278,651.305969 
	C861.520691,682.654236 846.415161,714.097656 825.206970,741.908813 
	C816.898438,752.804138 807.348938,763.038208 797.023987,772.034790 
	C785.463501,782.107849 771.383850,787.276428 756.476990,779.479492 
	C748.687744,775.405518 741.390930,769.587708 735.312439,763.188904 
	C713.003357,739.704224 697.522095,711.394165 680.952087,683.894226 
	C675.456909,674.774292 670.248413,665.481018 664.706299,656.390503 
	C663.022888,653.629333 662.815613,651.546387 664.766602,648.754150 
	C691.919434,609.892700 718.501587,570.620667 746.304993,532.232361 
	C755.378906,519.703979 766.647217,508.335205 778.529602,498.363708 
	C800.529297,479.901978 820.421936,484.497742 835.220337,509.191223 
	C849.272095,532.638977 856.856934,558.442200 863.876160,584.480530 
	C867.208069,596.840332 869.835449,609.390076 872.864868,622.267273 
z"/>
<path fill="#016268" opacity="1.000000" stroke="none" 
	d="
M239.361725,740.684875 
	C211.816116,726.969910 184.605972,713.423889 157.395844,699.877869 
	C157.512527,699.436951 157.629211,698.996094 157.745895,698.555176 
	C162.036057,698.253174 166.371262,698.245850 170.608536,697.597961 
	C188.616318,694.844666 204.715347,686.844543 219.323227,676.742126 
	C247.076813,657.548462 273.981506,637.126587 301.211334,617.177307 
	C305.343445,614.150024 309.328217,610.921570 314.038574,607.277588 
	C316.978424,613.550110 319.728363,619.330994 322.406342,625.144958 
	C341.840607,667.337036 362.012329,709.146484 387.631989,748.044434 
	C403.742004,772.504028 422.005859,795.047668 446.628326,811.622559 
	C449.551666,813.590515 452.859863,814.986755 455.989685,816.647949 
	C455.853790,817.108765 455.717926,817.569580 455.582031,818.030396 
	C452.980469,817.654419 450.328613,817.486389 447.784912,816.871155 
	C413.994934,808.698059 380.318634,799.924988 348.051117,786.913391 
	C313.046997,772.798096 278.550049,757.425293 243.831512,742.601868 
	C242.455444,742.014404 241.075378,741.436279 239.361725,740.684875 
z"/>
<path fill="#016268" opacity="1.000000" stroke="none" 
	d="
M624.435913,706.427856 
	C635.149719,691.412781 645.669250,676.699707 656.679016,661.300842 
	C662.457458,671.135010 667.557129,680.464355 673.267090,689.403809 
	C687.683594,711.973999 701.808472,734.765442 717.163513,756.688354 
	C726.709351,770.317200 738.395020,782.405029 754.301208,789.188477 
	C757.027100,790.350952 759.835876,791.319336 763.593628,792.754395 
	C670.918518,820.224548 578.063843,836.639648 483.593811,822.884399 
	C492.212616,820.482178 502.580200,818.541687 512.191284,814.705627 
	C529.372986,807.847961 543.889038,796.577759 557.378784,784.073364 
	C582.519104,760.769165 603.929810,734.219421 624.435913,706.427856 
z"/>
<path fill="#016268" opacity="1.000000" stroke="none" 
	d="
M260.001953,422.996796 
	C296.588379,440.024261 333.417725,455.468536 371.198853,468.586487 
	C408.780640,481.635254 447.109619,491.901947 486.930389,499.236420 
	C485.984741,499.960785 485.591827,500.520905 485.148407,500.564270 
	C461.637878,502.861633 440.441223,512.051453 419.851685,522.804138 
	C385.769989,540.602844 355.123169,563.559998 324.716064,586.848389 
	C322.643677,588.435608 320.509186,589.941772 317.793579,591.932861 
	C314.037323,583.718872 310.547516,576.055481 307.031311,568.404297 
	C291.667572,534.973206 276.684448,501.359650 260.787354,468.184052 
	C250.649521,447.027374 239.221451,426.479889 223.904144,408.428223 
	C223.500610,407.952576 223.285782,407.316833 223.553131,405.793701 
	C235.586792,411.479889 247.620453,417.166077 260.001953,422.996796 
z"/>
<path fill="#016268" opacity="1.000000" stroke="none" 
	d="
M682.839478,604.873291 
	C674.338379,617.563110 666.047424,629.960388 657.179688,643.220093 
	C653.245605,636.878418 649.854736,631.437012 646.487976,625.980713 
	C628.009277,596.034058 608.546021,566.792358 583.721802,541.598083 
	C569.497253,527.161499 553.704041,514.752136 534.802856,506.798004 
	C534.397888,506.627563 534.100952,506.200226 532.975769,505.203949 
	C612.723267,512.475586 690.841003,505.360748 769.170410,493.260376 
	C763.680969,498.715027 757.578003,503.684967 752.815125,509.713623 
	C737.452148,529.159485 722.363098,548.832458 707.606323,568.742432 
	C698.989197,580.368713 691.207275,592.614014 682.839478,604.873291 
z"/>
<path fill="#016268" opacity="1.000000" stroke="none" 
	d="
M910.228271,575.212097 
	C901.992798,594.289429 893.926453,613.021606 885.860107,631.753784 
	C885.444702,631.699524 885.029358,631.645203 884.614014,631.590942 
	C882.746094,623.278015 880.928711,614.953369 879.001282,606.654358 
	C872.528687,578.784302 865.645020,551.030151 853.990417,524.749329 
	C848.072449,511.404480 841.316284,496.975952 823.414001,482.557495 
	C868.459839,472.526428 912.944519,462.620300 959.150085,452.330994 
	C942.520569,494.128021 926.458984,534.497498 910.228271,575.212097 
z"/>
<path fill="#016369" opacity="1.000000" stroke="none" 
	d="
M80.106873,444.998901 
	C78.365211,405.839752 76.646698,367.162384 74.881721,327.439056 
	C112.676689,347.667450 149.545151,367.399963 186.832138,387.356506 
	C182.064041,388.773071 177.518387,389.575348 173.454529,391.432068 
	C160.410049,397.392059 151.514832,408.001678 143.717529,419.540863 
	C127.956726,442.865234 117.066719,468.619293 107.056091,494.752045 
	C101.524345,509.192627 96.531677,523.839600 91.277740,538.386902 
	C90.750504,539.846741 90.096321,541.260620 89.501053,542.695862 
	C88.883202,542.658936 88.265343,542.622009 87.647484,542.585083 
	C85.141670,510.216949 82.635857,477.848785 80.106873,444.998901 
z"/>
<path fill="#03656B" opacity="1.000000" stroke="none" 
	d="
M85.785538,588.258545 
	C91.254219,607.553894 95.948219,626.774170 102.226135,645.462402 
	C105.462204,655.095581 111.510292,663.785217 116.301476,672.893982 
	C117.248062,674.693665 118.257233,676.460327 118.341965,678.963013 
	C100.744080,669.450195 83.146187,659.937439 65.768623,650.543762 
	C71.853455,630.957275 77.895088,611.479919 83.971649,592.013428 
	C84.405846,590.622375 85.096008,589.311279 85.785538,588.258545 
z"/>
<path fill="#016268" opacity="1.000000" stroke="none" 
	d="
M221.437164,404.582397 
	C221.410629,404.536591 221.463699,404.628174 221.437164,404.582397 
z"/>
<path fill="#036268" opacity="1.000000" stroke="none" 
	d="
M124.961853,774.739258 
	C124.745750,774.796387 124.447868,774.584595 124.053299,774.105347 
	C124.264435,774.048706 124.572250,774.259521 124.961853,774.739258 
z"/>
<path fill="#016167" opacity="1.000000" stroke="none" 
	d="
M367.144409,54.103268 
	C368.182312,52.984333 369.420715,51.518738 370.942657,51.110783 
	C394.643402,44.757721 418.378387,38.553623 442.989868,36.718834 
	C459.670410,35.475292 476.327820,33.887493 493.019745,32.838398 
	C516.405701,31.368578 539.572693,33.730476 562.802429,36.510098 
	C584.938110,39.158802 606.664185,43.576527 628.118225,49.202087 
	C649.629211,54.842560 670.550842,62.460182 690.815491,71.751968 
	C714.199524,82.474091 737.171204,93.945366 758.495361,108.461174 
	C766.156433,113.676193 773.868042,118.818466 781.460632,124.131042 
	C782.872986,125.119255 783.827332,126.761986 784.981750,128.442612 
	C757.469666,131.146774 730.006348,134.218124 702.457703,135.681030 
	C673.546204,137.216293 644.542725,138.007629 615.598145,137.642853 
	C588.992126,137.307571 562.535034,134.134552 536.476685,128.182358 
	C508.794342,121.859230 481.879395,113.113602 456.461639,100.597939 
	C426.465363,85.827797 397.110016,69.756050 367.144409,54.103268 
z"/>
</svg>